<?xml version="1.0" standalone="no"?>
<!DOCTYPE svg PUBLIC "-//W3C//DTD SVG 20010904//EN"
 "http://www.w3.org/TR/2001/REC-SVG-20010904/DTD/svg10.dtd">
<svg version="1.0" xmlns="http://www.w3.org/2000/svg"
 width="508.000000pt" height="604.000000pt" viewBox="0 0 508.000000 604.000000"
 preserveAspectRatio="xMidYMid meet">

<g transform="translate(0.000000,604.000000) scale(0.100000,-0.100000)"
fill="#000000" stroke="none">
<path d="M0 5937 c0 -69 4 -108 13 -116 10 -11 10 -13 0 -7 -10 6 -13 -46 -13
-242 l0 -250 38 -6 c50 -9 145 -36 141 -41 -2 -2 -42 5 -89 15 -47 10 -87 16
-90 13 -8 -8 22 -21 64 -27 55 -9 82 -26 41 -26 -17 0 -35 4 -40 9 -6 4 -22
11 -38 15 l-27 6 0 -162 0 -163 25 29 c25 30 40 31 30 4 -3 -8 -17 -21 -31
-28 -14 -8 -24 -22 -24 -36 0 -23 24 -39 42 -28 12 7 29 -16 22 -28 -3 -4 -18
-8 -35 -8 l-29 0 0 -650 0 -650 40 0 40 0 -5 38 c-7 45 2 60 37 64 14 2 33 9
41 16 13 11 16 7 22 -28 4 -23 5 -43 3 -46 -3 -2 -21 -5 -41 -6 -28 -2 -37 -7
-37 -22 0 -17 7 -18 98 -12 259 15 291 19 307 37 11 11 13 19 6 24 -13 8 -14
25 -2 25 8 0 24 -37 22 -52 -1 -8 48 -23 53 -17 9 11 -29 73 -54 87 -34 19
-40 37 -10 27 22 -7 26 5 8 23 -8 8 -8 15 2 26 16 21 33 10 24 -16 -5 -16 -3
-20 9 -15 23 9 43 -19 22 -30 -14 -8 -14 -12 3 -34 11 -13 18 -36 18 -52 -1
-21 2 -26 14 -21 13 6 33 10 63 13 11 1 8 26 -8 57 -19 36 -19 54 -1 54 8 0
16 7 20 15 3 8 1 15 -4 15 -6 0 -10 -4 -10 -9 0 -15 -32 -22 -47 -10 -11 10
-11 14 -1 20 7 5 13 21 14 36 0 16 1 61 2 100 l2 73 45 11 c25 6 45 14 45 18
0 6 31 7 68 3 6 -1 12 -9 12 -18 0 -11 -6 -14 -21 -9 -15 5 -19 4 -14 -5 4 -6
-1 -20 -10 -30 -10 -12 -15 -28 -12 -40 4 -16 1 -20 -11 -18 -21 3 -62 -23
-62 -39 0 -17 11 -16 38 3 29 20 65 27 59 11 -2 -7 2 -18 9 -25 11 -10 14 -10
14 -1 0 7 2 10 5 7 8 -8 -6 -39 -15 -33 -16 10 -20 -13 -5 -25 20 -17 19 -39
-2 -47 -10 -4 -21 -11 -26 -17 -5 -7 -12 -4 -22 8 -15 19 -15 19 -15 -1 0 -13
8 -24 21 -28 17 -6 19 -9 8 -16 -12 -8 -11 -11 4 -20 12 -7 16 -17 12 -32 -4
-12 -3 -17 2 -12 11 13 53 17 53 5 0 -6 7 -10 15 -10 8 0 15 5 15 10 0 6 7 10
15 10 11 0 14 -7 9 -25 -4 -15 -2 -25 5 -25 6 0 11 4 11 9 0 5 11 8 24 7 25
-3 43 18 25 29 -14 9 -6 55 12 66 11 7 11 9 -4 9 -10 0 -20 7 -24 16 -8 22
-25 -4 -17 -28 6 -20 -15 -35 -26 -18 -6 9 -10 7 -15 -9 -7 -22 -35 -30 -35
-9 0 6 8 21 17 32 10 12 11 15 3 9 -20 -18 -35 -16 -20 2 10 12 9 16 -4 21 -9
3 -16 12 -16 19 0 17 29 40 38 30 4 -4 1 -10 -5 -12 -16 -6 -17 -29 -2 -38 11
-7 42 29 46 54 3 21 -8 41 -22 41 -14 0 -25 22 -25 51 0 12 5 16 15 13 9 -4
15 0 15 10 0 18 -13 20 -38 7 -21 -11 -62 3 -62 21 0 7 4 20 10 28 7 12 12 10
30 -9 24 -29 32 -24 33 22 1 27 4 33 18 30 9 -3 20 0 23 6 4 6 16 11 27 11 18
0 20 -4 14 -30 -8 -35 -2 -37 24 -11 12 12 16 23 10 32 -13 21 -11 39 6 39 9
0 18 7 22 16 5 13 9 10 19 -12 7 -16 13 -23 13 -16 1 6 8 12 17 12 11 0 14 5
10 16 -3 9 -6 18 -6 20 0 2 -7 4 -16 4 -12 0 -15 6 -10 23 3 12 6 25 6 30 0 4
13 7 30 7 24 0 29 4 27 21 -1 12 4 24 10 26 7 3 13 -2 13 -11 0 -9 7 -16 15
-16 12 0 13 4 4 19 -7 10 -9 26 -5 36 5 14 9 15 21 5 8 -7 12 -16 9 -22 -3 -5
0 -15 6 -23 9 -11 17 -12 31 -4 22 11 26 34 5 26 -23 -9 -25 16 -3 34 19 15
19 16 -22 32 -56 23 -148 22 -214 -3 -33 -13 -76 -41 -113 -75 -59 -56 -84
-67 -84 -40 0 8 8 15 18 15 10 0 29 12 43 26 30 33 121 92 154 100 14 3 25 13
25 21 0 9 -6 13 -14 10 -7 -3 -18 -1 -24 5 -11 11 -35 1 -27 -12 11 -18 -22
-31 -51 -19 -23 10 -25 13 -11 16 10 3 17 14 17 29 0 22 -4 24 -46 24 -38 0
-45 3 -42 18 2 9 12 17 23 18 11 1 25 2 31 3 6 0 9 17 8 36 -2 24 1 35 10 35
9 0 12 -8 9 -24 -6 -29 12 -42 33 -25 22 18 39 -2 25 -29 -18 -33 -13 -52 12
-52 36 0 50 15 44 46 -11 58 25 90 110 98 48 5 66 13 58 27 -4 5 1 9 10 9 9 0
13 -4 10 -10 -7 -12 64 -6 91 8 11 5 25 7 33 4 11 -3 12 1 8 19 -4 13 -7 44
-7 69 0 33 -3 41 -10 30 -5 -8 -10 -27 -10 -42 0 -21 -5 -28 -20 -28 -25 0
-27 27 -2 33 14 4 13 5 -4 6 -18 1 -22 9 -28 54 -8 71 -8 137 2 136 28 -5 32
4 32 75 0 41 -4 78 -10 81 -5 3 -48 -3 -96 -15 -123 -29 -136 -23 -21 10 54
15 101 31 105 35 8 7 -1 6 -127 -25 -46 -11 -96 -20 -110 -19 -22 1 -18 4 24
24 53 25 52 28 -7 25 -36 -1 -38 0 -38 29 0 27 5 32 50 48 27 10 50 21 50 26
0 4 5 5 11 1 9 -5 10 1 5 22 -4 16 -7 40 -7 53 1 26 3 26 -94 -1 l-50 -14 -5
-60 -6 -59 -8 38 c-6 29 -11 35 -18 25 -11 -14 -8 -4 8 36 6 17 4 18 -19 12
-21 -5 -25 -3 -21 9 3 8 11 12 17 8 14 -8 2 296 -12 310 -7 7 -38 0 -97 -21
-86 -32 -135 -42 -104 -22 8 5 57 26 108 46 51 20 91 38 89 40 -2 3 -47 -11
-98 -30 -52 -19 -104 -37 -116 -41 -26 -7 -30 6 -8 25 8 7 15 19 15 26 0 8 12
17 28 20 60 14 120 46 131 70 16 36 14 49 -14 82 -14 17 -25 33 -25 36 0 3 15
12 34 20 33 14 34 17 31 58 -14 213 -16 262 -10 256 9 -9 27 -158 60 -488 14
-140 28 -283 32 -317 3 -35 8 -63 10 -63 15 0 120 34 129 41 8 7 10 37 7 92
l-6 83 42 28 c31 22 41 35 41 57 0 15 5 31 10 34 6 3 10 5 11 3 0 -2 6 -45 13
-96 10 -82 10 -94 -4 -102 -12 -8 -11 -9 7 -10 20 0 21 4 17 53 -13 169 -17
233 -16 239 1 4 -49 -11 -110 -33 -121 -43 -170 -48 -103 -10 22 12 31 19 20
16 -11 -4 -34 -9 -51 -12 -30 -5 -31 -4 -32 36 -1 31 4 46 23 65 34 34 32 49
-5 41 -23 -5 -30 -3 -30 9 0 9 8 16 18 16 15 1 15 2 -2 15 -23 18 -11 19 32 4
29 -10 31 -14 27 -46 -4 -29 -2 -33 10 -23 7 6 11 18 8 26 -3 8 0 21 7 29 11
13 10 18 -5 29 -18 13 -18 14 2 20 13 4 22 17 25 36 4 27 2 30 -16 24 -45 -14
-50 -14 -17 1 l33 16 -4 74 c-2 40 -6 76 -9 80 -3 3 -26 -4 -50 -15 -24 -11
-51 -19 -59 -19 -12 0 -12 2 -1 6 13 5 20 11 79 60 17 15 30 19 36 13 13 -13
29 -13 21 0 -4 6 39 10 123 10 l130 0 6 -32 c6 -31 22 -216 61 -698 9 -107 25
-296 35 -420 11 -124 24 -278 30 -344 10 -123 20 -151 52 -140 22 7 49 -12 42
-30 -2 -6 -20 -13 -39 -14 -27 -2 -35 1 -35 14 0 21 -22 13 -35 -13 -8 -16
-15 -19 -28 -12 -13 8 -17 6 -17 -9 0 -16 -10 -21 -46 -27 -53 -8 -58 -32 -9
-48 17 -6 34 -16 38 -23 11 -19 57 -14 57 6 1 8 7 26 14 38 l13 24 17 -26 c14
-23 14 -26 1 -26 -20 0 -19 -16 1 -24 9 -4 12 -11 7 -18 -4 -7 -8 -35 -9 -62
l-1 -48 39 5 c36 5 52 -5 26 -16 -21 -9 11 -25 35 -19 16 4 19 2 14 -13 -4 -9
-3 -23 3 -30 8 -9 8 -15 0 -20 -5 -3 -10 -1 -10 5 0 19 -52 60 -75 60 -13 0
-26 8 -29 17 -5 13 -9 14 -19 4 -14 -14 6 -31 37 -31 13 0 16 -4 11 -17 -5
-10 -8 -26 -9 -35 0 -19 -21 -24 -31 -8 -10 17 -35 -2 -35 -27 0 -19 -4 -24
-16 -19 -9 3 -20 6 -25 6 -5 0 -9 9 -9 20 0 11 -5 20 -11 20 -5 0 -8 4 -5 9 4
5 1 11 -6 13 -15 5 13 38 31 38 6 0 11 11 11 25 0 14 -6 25 -13 25 -7 0 -20 9
-30 21 -12 13 -13 19 -5 18 26 -3 39 1 33 12 -4 6 -9 8 -12 5 -3 -3 -14 6 -25
19 -18 23 -20 23 -54 9 -19 -8 -39 -12 -44 -9 -6 4 -10 -1 -10 -9 0 -9 7 -16
15 -16 8 0 15 -4 15 -10 0 -5 -4 -10 -10 -10 -5 0 -10 -9 -10 -21 0 -11 -4
-18 -9 -15 -15 10 -43 -6 -37 -20 3 -8 -1 -14 -8 -14 -20 0 -27 -27 -10 -34
26 -10 34 -7 34 15 0 14 5 19 14 16 9 -4 16 1 18 10 3 14 5 14 15 2 10 -12 7
-21 -13 -44 -17 -20 -21 -31 -13 -36 12 -7 4 -29 -10 -29 -5 0 -20 12 -35 27
-26 25 -27 26 -41 7 -12 -16 -12 -19 1 -22 19 -5 18 -38 -1 -46 -20 -7 -19
-33 1 -44 10 -5 12 -12 7 -15 -6 -4 -21 5 -33 18 -24 25 -40 32 -40 17 0 -5 8
-17 18 -28 10 -11 19 -27 19 -37 0 -20 -13 -23 -20 -4 -4 9 -6 9 -6 0 -1 -7 8
-22 19 -33 11 -11 15 -22 10 -25 -6 -4 -10 -1 -10 4 0 6 -5 11 -11 11 -28 0
-50 56 -24 62 14 3 14 5 1 23 -13 17 -17 18 -25 5 -5 -8 -7 -18 -4 -23 3 -5
-12 -7 -33 -5 -31 2 -39 -1 -42 -15 -4 -19 13 -23 24 -5 5 8 11 6 20 -7 13
-17 14 -17 20 0 6 14 9 11 21 -15 16 -38 9 -52 -11 -24 -15 19 -15 19 -30 -1
-15 -20 -15 -20 -16 3 0 25 -5 27 -26 9 -40 -32 -55 -49 -49 -55 4 -4 12 1 19
11 14 18 42 25 31 7 -3 -6 1 -13 9 -16 11 -4 14 -14 10 -31 -6 -22 -4 -23 20
-17 23 5 26 3 26 -20 0 -14 -4 -26 -9 -26 -14 0 -22 -31 -12 -44 6 -7 4 -18
-5 -30 -12 -17 -14 -18 -20 -2 -6 14 -9 14 -31 -8 -35 -35 -68 -40 -112 -17
l-38 19 5 -24 c3 -18 0 -24 -12 -24 -10 0 -14 -5 -10 -11 3 -6 22 -9 40 -7 30
4 33 2 28 -15 -4 -11 0 -23 7 -28 10 -6 8 -9 -9 -9 -31 0 -23 -22 11 -31 21
-6 30 -3 41 12 8 12 19 17 30 13 19 -7 23 21 4 30 -9 3 -6 11 10 24 12 11 22
25 22 31 0 6 5 11 10 11 6 0 10 -4 10 -9 0 -5 3 -16 6 -24 3 -9 -1 -17 -11
-19 -12 -2 -18 -15 -21 -41 -4 -44 12 -41 24 6 5 18 14 31 21 29 6 -1 16 9 21
23 5 14 13 25 18 25 5 0 21 11 36 25 l27 25 19 -22 c21 -26 17 -41 -9 -33 -11
3 -26 -5 -41 -20 -21 -22 -22 -28 -10 -35 8 -5 23 -10 32 -10 12 0 15 -5 11
-16 -3 -8 -12 -13 -19 -10 -25 10 -15 -14 11 -26 14 -6 25 -15 25 -20 0 -4 6
-8 14 -8 12 0 26 -20 26 -39 0 -4 -14 -15 -31 -25 -24 -14 -28 -20 -18 -32 6
-8 20 -12 30 -9 20 7 32 -7 24 -27 -6 -16 -65 -22 -65 -7 0 6 -7 8 -16 5 -13
-5 -14 -1 -9 27 4 17 13 39 20 47 6 8 15 23 19 34 5 15 2 17 -18 12 -20 -5
-23 -3 -19 14 6 23 -12 27 -21 5 -7 -19 -26 -19 -26 0 0 20 -15 19 -35 -2 -18
-17 -70 -28 -60 -12 3 5 -1 6 -9 3 -9 -3 -16 -10 -16 -15 0 -6 -12 1 -27 15
-31 29 -40 27 -23 -4 11 -20 10 -21 -11 -10 -19 11 -25 9 -45 -15 -13 -15 -21
-31 -18 -36 3 -5 -2 -6 -11 -3 -20 8 -11 40 22 75 20 22 22 27 9 32 -19 8 -21
43 -4 50 10 4 9 8 -2 16 -10 7 -18 7 -27 -1 -7 -5 -19 -8 -27 -5 -9 4 -16 -3
-20 -16 -6 -23 9 -47 29 -47 7 0 10 -9 8 -24 l-5 -23 -30 27 c-26 24 -33 26
-59 17 -33 -13 -35 -19 -14 -37 8 -7 15 -19 15 -26 0 -8 7 -14 15 -14 20 0 19
20 -1 35 -26 19 8 27 35 9 23 -17 29 -46 7 -38 -7 3 -16 -3 -20 -12 -9 -22 2
-32 15 -14 9 13 10 12 6 -2 -8 -24 56 -80 73 -65 10 9 11 9 6 0 -11 -19 39
-16 54 3 11 13 10 16 -8 20 -25 7 -35 30 -22 52 9 16 9 15 10 -1 0 -11 6 -17
16 -15 19 3 59 -58 44 -67 -11 -7 9 -55 22 -55 5 0 6 -4 3 -10 -3 -5 -17 -10
-29 -10 -13 0 -31 -10 -39 -22 -14 -21 -16 -21 -16 -4 -1 15 -4 16 -16 6 -12
-10 -15 -10 -15 1 0 27 17 44 32 31 9 -7 19 -7 28 -2 13 8 12 12 -5 24 -28 21
-46 20 -52 -4 -6 -23 -33 -27 -33 -5 0 7 -6 18 -12 22 -7 4 -13 15 -13 23 0 8
-10 16 -22 18 -13 2 -23 8 -23 13 0 5 -5 9 -11 9 -8 0 -9 -11 -5 -31 5 -27 4
-30 -9 -19 -8 7 -13 16 -10 20 2 4 -2 16 -10 26 -13 18 -14 18 -13 -6 1 -14 5
-30 10 -37 10 -13 -25 -29 -54 -24 -22 3 -22 -7 -3 -33 20 -27 19 -33 -10 -40
-39 -10 -29 -25 13 -19 29 4 35 3 25 -7 -6 -7 -9 -20 -5 -29 5 -13 3 -13 -12
2 -13 12 -22 15 -30 8 -7 -6 -22 -8 -34 -4 -15 3 -24 0 -28 -11 -7 -17 -44
-22 -44 -6 0 6 8 10 19 10 26 0 44 23 29 38 -9 9 -16 8 -32 -6 -11 -9 -16 -12
-13 -5 4 6 3 14 -3 18 -5 3 -10 1 -10 -5 0 -6 -3 -9 -8 -6 -11 7 -72 -22 -72
-34 0 -7 -8 -9 -20 -5 -20 6 -70 -20 -70 -37 0 -6 8 -4 17 3 9 8 14 9 10 2
-21 -34 27 -57 57 -27 15 14 16 13 16 -13 0 -37 -14 -60 -26 -42 -6 10 -11 6
-19 -14 l-11 -27 -34 18 c-19 10 -34 23 -32 30 3 17 -9 14 -38 -9 -17 -14 -21
-22 -13 -26 7 -2 13 -17 13 -31 0 -19 -3 -23 -9 -14 -6 11 -10 10 -15 -4 -3
-9 -4 -19 -2 -22 9 -8 74 27 80 44 3 8 10 12 16 9 6 -4 8 -11 5 -16 -4 -5 -2
-9 4 -9 5 0 12 6 14 13 3 6 6 -2 6 -20 1 -17 -4 -35 -9 -38 -6 -4 -8 -15 -5
-25 3 -10 -1 -25 -10 -33 -20 -20 -19 -24 5 -30 25 -6 26 -25 3 -34 -10 -4
-21 -11 -25 -17 -4 -6 -10 -7 -15 -3 -4 5 -1 12 7 18 10 6 12 11 4 17 -14 9
-27 45 -14 37 6 -3 10 -1 10 4 0 6 -9 11 -19 11 -16 0 -20 -8 -23 -37 -2 -21
-8 -37 -14 -36 -6 1 -11 -16 -12 -38 -1 -23 -5 -45 -8 -51 -4 -6 0 -14 7 -19
21 -13 3 -22 -20 -9 -12 6 -21 19 -21 29 0 24 -25 45 -42 35 -7 -5 -21 -7 -32
-5 -10 1 -23 -3 -27 -11 -13 -20 -11 -25 14 -24 16 1 23 -5 25 -21 2 -17 -1
-21 -11 -17 -8 3 -17 -2 -20 -10 -4 -9 -2 -16 3 -16 16 0 11 -27 -5 -34 -8 -3
-22 -3 -30 0 -10 4 -15 0 -15 -11 0 -10 -8 -24 -18 -32 -13 -11 -8 -10 22 2
54 21 69 20 57 -4 -9 -15 -7 -20 9 -24 23 -6 38 10 43 44 2 13 12 26 21 27 15
3 17 -1 11 -20 -4 -12 -14 -35 -22 -51 -12 -25 -12 -27 5 -27 11 0 35 -3 53
-7 31 -6 33 -5 21 10 -18 21 -7 37 23 35 16 -2 21 -6 15 -12 -15 -15 -12 -26
6 -26 9 0 18 9 21 21 4 14 8 17 13 9 15 -25 29 -1 18 30 -7 22 -16 30 -34 30
-13 0 -24 -5 -24 -11 0 -5 -5 -7 -10 -4 -6 4 -22 0 -35 -9 -30 -20 -35 -20
-35 -1 0 26 23 66 36 61 8 -3 16 -1 19 4 4 6 1 10 -4 10 -6 0 -11 9 -11 20 0
19 5 21 73 35 21 4 23 -18 3 -34 -11 -10 -17 -8 -26 6 -11 17 -11 17 -6 0 3
-10 1 -27 -4 -37 -16 -30 19 -14 52 24 26 29 27 30 28 9 0 -13 -3 -23 -8 -23
-4 0 -13 -9 -20 -20 -11 -18 -10 -20 18 -20 16 0 29 3 29 8 -3 19 2 26 10 13
8 -12 14 -13 36 -3 23 11 27 10 22 -2 -4 -10 -1 -13 7 -10 9 3 13 -5 13 -26 0
-17 -3 -27 -6 -21 -9 14 -60 1 -66 -18 -3 -9 -21 -25 -40 -35 -38 -21 -46 -36
-16 -33 11 1 17 6 14 15 -4 10 1 11 23 6 16 -4 34 -9 39 -13 6 -3 15 -6 20 -6
6 -1 18 -5 27 -9 26 -12 48 0 48 24 0 12 -5 18 -10 15 -6 -3 -10 -2 -10 2 0
13 32 30 70 37 l35 7 -23 -20 c-25 -22 -22 -41 7 -41 11 0 18 7 17 16 0 9 9
20 21 25 18 6 23 5 23 -6 0 -8 -9 -15 -19 -15 -14 0 -18 -5 -14 -20 4 -13 -1
-26 -12 -34 -25 -18 -10 -36 29 -36 19 0 53 -7 76 -15 23 -8 43 -15 44 -15 2
0 2 31 2 69 -1 74 1 76 62 57 25 -8 24 -33 -1 -28 -19 3 -33 -23 -32 -63 0
-20 5 -30 15 -30 9 0 14 7 12 19 -2 11 1 15 7 11 6 -3 11 -13 11 -22 0 -12 3
-13 15 -3 8 6 19 9 24 6 5 -4 12 -2 15 3 3 5 15 7 26 4 11 -3 20 0 20 6 0 9
-28 16 -52 12 -5 0 -8 3 -8 8 0 13 73 10 83 -3 6 -8 10 -7 14 2 9 24 43 12 69
-25 17 -25 24 -30 19 -15 -4 13 -2 22 4 22 6 0 11 -6 11 -14 0 -12 32 -24 85
-31 11 -1 28 4 37 13 16 13 19 12 37 -9 24 -29 28 -8 7 33 -8 15 -11 30 -7 32
4 3 14 -10 21 -29 8 -19 16 -35 19 -35 14 1 26 17 26 34 0 11 6 21 14 24 11 4
13 -2 8 -25 -8 -40 0 -47 31 -23 30 24 52 26 52 5 0 -13 4 -14 22 -4 18 10 20
9 15 -5 -4 -11 -1 -16 9 -16 13 0 11 -5 -7 -24 -21 -22 -56 -26 -43 -5 3 5 -2
6 -10 3 -9 -3 -16 -1 -16 5 0 9 -5 9 -20 1 -11 -6 -20 -21 -20 -34 0 -21 6
-24 50 -30 57 -8 62 -17 23 -36 -17 -8 -23 -14 -15 -17 7 -3 31 7 52 21 23 15
42 21 45 16 7 -12 65 15 65 30 0 10 -32 1 -41 -12 -7 -10 -69 1 -69 13 0 5 8
9 18 9 10 0 22 3 26 7 4 4 17 8 29 8 13 0 21 6 19 13 -1 7 3 12 10 10 7 -1 27
5 43 15 26 14 21 23 -9 18 -17 -4 15 28 35 34 10 4 19 13 19 21 0 8 4 14 9 14
13 0 21 -27 15 -45 -5 -11 1 -15 18 -15 13 0 40 -9 60 -20 21 -11 45 -17 55
-14 10 3 7 -1 -6 -9 -13 -8 -20 -17 -14 -20 5 -3 15 -2 23 4 21 13 30 11 30
-6 0 -8 -4 -15 -10 -15 -5 0 -10 -11 -10 -25 0 -16 6 -25 15 -25 8 0 15 -5 15
-11 0 -6 7 -9 15 -5 9 3 15 0 15 -8 0 -9 7 -12 20 -9 15 4 20 0 20 -13 0 -14
3 -15 12 -6 17 17 68 15 68 -2 0 -8 9 -21 20 -29 29 -21 18 -77 -16 -77 -26 0
-31 -14 -11 -34 15 -16 75 -18 104 -4 24 12 116 2 108 -12 -10 -16 15 -21 50
-10 32 11 48 30 25 30 -5 0 -10 5 -10 10 0 13 167 13 175 0 3 -6 -3 -10 -14
-10 -29 0 -26 -12 9 -32 27 -15 28 -19 20 -50 -6 -18 -10 -50 -10 -71 0 -21
-5 -59 -12 -84 -10 -42 -9 -47 11 -62 l22 -17 -27 -64 c-14 -36 -35 -83 -45
-105 -21 -46 -69 -199 -69 -220 0 -8 -12 -21 -26 -28 -31 -16 -44 -71 -19 -81
8 -3 15 -12 15 -19 0 -9 21 -21 53 -29 28 -9 51 -20 50 -26 -4 -17 69 -7 114
16 23 12 56 22 73 22 32 0 86 23 92 38 1 5 30 16 63 24 56 14 60 17 66 49 4
18 5 37 3 41 -7 11 -62 10 -84 -2 -10 -5 -43 -16 -74 -24 -46 -12 -60 -13 -81
-2 -13 7 -22 16 -18 19 3 4 11 3 18 -3 17 -14 111 35 132 70 9 17 23 30 29 30
6 0 14 12 17 26 3 18 1 22 -6 15 -6 -6 -19 -11 -28 -11 -9 0 -22 -6 -29 -14
-18 -22 -53 -23 -71 -2 -11 13 -22 16 -37 12 -28 -9 -29 -26 -1 -26 33 0 18
-22 -45 -64 -54 -36 -58 -37 -76 -21 -15 14 -19 31 -19 91 0 40 4 76 9 79 4 3
8 21 8 41 0 37 28 86 64 112 21 16 24 32 4 32 -28 0 -35 59 -10 84 8 9 11 16
5 16 -7 0 -9 14 -6 38 2 20 7 58 10 85 4 31 11 47 21 47 8 0 14 -6 14 -14 0
-12 6 -13 33 -4 17 5 40 12 50 15 11 3 17 0 17 -10 0 -11 10 -15 36 -15 46 0
54 -9 18 -22 -16 -5 -36 -15 -44 -20 -8 -6 -25 -14 -37 -20 -13 -5 -23 -14
-23 -19 0 -5 -9 -11 -21 -14 -12 -3 -18 -10 -14 -16 10 -17 40 -13 60 9 18 20
45 27 45 11 0 -4 11 -6 25 -3 14 2 25 8 25 13 0 5 7 9 15 9 8 0 15 6 15 13 0
15 -27 148 -41 200 -41 155 -41 282 1 433 11 41 20 90 20 109 0 29 9 44 48 83
27 26 59 63 72 82 33 50 91 109 122 126 15 8 42 14 60 14 l33 0 -25 -20 c-20
-16 -22 -22 -11 -29 13 -8 12 -17 -3 -63 -11 -33 -20 -99 -23 -178 -3 -69 -9
-132 -14 -141 -5 -9 -4 -43 1 -75 9 -52 24 -234 22 -274 0 -8 -5 -44 -11 -80
-24 -153 -34 -336 -18 -361 8 -13 7 -24 -3 -46 -8 -15 -17 -64 -21 -108 -11
-119 -26 -225 -39 -268 -13 -43 -6 -60 21 -52 21 7 20 9 21 -123 0 -34 -5 -68
-11 -75 -6 -7 -13 -40 -17 -73 -4 -32 -11 -64 -15 -70 -6 -7 4 -17 29 -28 44
-20 69 -53 53 -69 -17 -17 -13 -29 9 -22 21 7 24 -2 14 -29 -8 -20 -24 -21
-24 -1 0 10 -10 15 -27 15 -17 0 -38 11 -53 26 -27 29 -43 15 -16 -15 21 -23
20 -28 -8 -35 -15 -4 -25 -15 -28 -31 -8 -37 6 -39 32 -5 13 17 29 30 36 30
19 0 18 -6 -11 -34 -17 -17 -25 -36 -25 -61 0 -27 -8 -44 -35 -70 -40 -40 -39
-40 -59 -19 -22 22 -20 60 5 96 17 23 19 32 9 38 -9 5 -9 9 -1 14 14 9 14 36
1 36 -6 0 -15 -12 -21 -27 -6 -16 -18 -43 -27 -61 -8 -17 -15 -49 -14 -69 2
-48 54 -134 116 -189 53 -49 61 -49 185 -18 40 9 59 10 68 2 18 -14 16 -21 -8
-36 -16 -10 -24 -10 -35 -1 -23 19 -18 -15 6 -36 11 -10 20 -25 20 -34 1 -9 8
-27 16 -41 l15 -25 -7 25 c-3 14 -8 41 -11 61 -4 30 -1 37 20 46 32 15 64 7
107 -27 19 -15 45 -30 58 -34 30 -10 61 -80 69 -156 l6 -60 241 0 241 0 64 52
c55 44 70 51 110 52 60 2 71 10 71 51 0 36 -5 33 85 50 11 2 22 4 25 5 3 1 9
2 14 1 4 -1 14 3 21 9 14 12 46 13 122 7 33 -3 44 0 48 13 7 23 58 39 139 44
37 2 73 9 79 15 14 14 54 14 62 1 9 -15 25 -12 25 4 0 10 23 18 72 27 74 12
245 15 256 4 3 -3 9 -27 13 -53 3 -26 6 673 6 1553 -1 880 -2 1570 -4 1533
l-4 -68 -207 0 c-162 0 -212 3 -232 15 -14 8 -32 18 -40 22 -8 4 -20 12 -27
18 -6 7 -37 15 -68 19 -31 3 -75 15 -98 26 -52 25 -93 25 -165 -1 -88 -32
-217 -36 -322 -11 -47 12 -126 26 -176 33 -81 11 -101 10 -175 -6 -84 -18
-137 -44 -173 -84 -11 -11 -27 -21 -36 -21 -16 0 -17 11 -14 118 l5 118 -60
117 -60 117 27 1 c15 1 36 2 47 3 11 1 49 3 83 4 57 2 67 5 92 32 34 37 54 38
102 5 34 -23 45 -25 115 -21 43 2 100 5 126 5 34 1 47 5 44 14 -2 7 -15 11
-30 9 -21 -3 -27 1 -27 15 0 14 9 18 45 19 40 1 44 -1 42 -20 -2 -19 2 -21 53
-19 30 0 72 2 93 2 26 1 37 5 37 16 0 17 16 20 25 5 3 -5 18 -10 33 -9 15 0
21 3 15 6 -7 2 -13 9 -13 14 0 6 5 7 10 4 6 -3 10 1 10 10 0 13 -7 15 -36 11
-19 -4 -44 -11 -54 -16 -28 -15 -32 -12 -25 13 11 34 45 57 66 44 19 -12 129
9 129 25 0 4 7 8 16 8 9 0 21 13 27 30 8 20 18 30 32 30 27 0 61 38 46 53 -7
7 -18 7 -37 -2 -24 -11 -26 -10 -21 9 4 16 0 20 -18 20 -13 0 -26 -6 -28 -12
-4 -10 -8 -10 -15 1 -11 15 -87 7 -77 -8 6 -10 -19 -33 -31 -29 -11 4 -15 -12
-8 -34 4 -13 14 -16 41 -14 21 1 39 8 41 14 2 7 8 12 13 12 19 0 8 -28 -27
-65 -28 -31 -36 -35 -34 -20 1 11 2 28 1 39 -1 16 -4 15 -22 -8 -24 -31 -35
-27 -44 14 -4 17 -11 28 -16 24 -13 -8 -11 -41 4 -48 6 -3 -10 -3 -38 1 -27 3
-62 7 -77 7 -14 1 -30 4 -34 9 -10 9 -44 9 -43 0 0 -5 4 -17 8 -28 10 -23 -4
-46 -24 -39 -7 3 -16 1 -20 -5 -11 -18 -25 -12 -25 10 0 16 5 20 20 16 20 -5
45 15 33 26 -3 4 -17 4 -29 1 -15 -4 -24 -2 -24 5 0 6 7 11 15 11 20 0 19 29
-2 37 -14 5 -13 8 5 14 12 5 22 13 22 18 0 12 -82 20 -97 9 -7 -6 -17 -7 -23
-3 -21 13 -8 23 42 29 30 4 57 14 65 24 11 16 12 16 13 -2 0 -12 5 -16 16 -12
9 3 20 6 25 6 5 0 9 4 9 10 0 5 -6 7 -13 4 -10 -3 -12 5 -9 32 4 32 2 35 -15
30 -11 -3 -49 -7 -86 -7 -43 -1 -70 -6 -78 -15 -6 -8 -23 -14 -36 -14 -15 0
-37 -12 -54 -31 -19 -21 -29 -26 -29 -16 0 9 4 18 9 21 5 3 7 16 4 27 -5 19
-11 21 -60 17 -55 -5 -100 -31 -77 -46 13 -8 14 -72 2 -72 -5 0 -8 -5 -8 -10
0 -6 11 -8 25 -4 24 6 26 4 19 -21 -4 -17 -2 -30 6 -35 20 -12 3 -70 -21 -70
-10 0 -19 -4 -19 -10 0 -5 11 -10 25 -10 14 0 25 -4 25 -9 0 -5 -11 -8 -25 -7
-14 0 -25 5 -25 9 0 5 -4 5 -10 2 -5 -3 -10 0 -10 9 0 8 -6 17 -12 19 -10 4
-10 6 0 6 6 1 12 8 12 16 0 7 8 18 17 23 13 8 8 11 -24 17 -40 6 -41 7 -33 41
7 32 5 38 -12 35 -16 -2 -7 26 12 44 11 10 20 21 20 26 0 4 -9 5 -20 2 -21 -6
-28 11 -9 23 6 3 9 15 6 25 -3 12 2 23 14 29 15 8 21 6 31 -10 18 -28 23 -25
24 15 0 34 -9 45 -21 25 -16 -26 -20 1 -20 138 -1 192 -6 307 -14 319 -3 5
-23 9 -45 9 -43 0 -66 22 -66 64 0 44 26 70 71 70 36 0 39 2 40 28 1 20 3 22
6 7 2 -11 7 -27 10 -35 3 -8 5 -19 4 -24 -1 -5 0 -15 3 -23 5 -12 9 -12 27 1
16 11 28 12 51 4 39 -14 52 -49 33 -93 -13 -33 -28 -41 -65 -35 -46 8 -44 14
-42 -155 3 -183 8 -226 26 -219 7 3 26 6 42 7 24 2 30 8 38 40 11 42 1 61 -19
34 -15 -21 -45 -13 -45 12 0 19 27 36 74 46 27 6 28 7 10 21 -18 14 -17 15 11
9 16 -4 31 -8 33 -10 7 -7 -33 -45 -47 -45 -13 0 -13 -2 1 -16 14 -14 14 -19
1 -45 -13 -26 -12 -30 7 -51 l21 -22 -22 -8 c-15 -6 -25 -4 -33 7 -10 14 -13
11 -23 -15 -11 -29 -10 -30 8 -25 20 7 44 -5 88 -44 31 -27 51 -27 51 0 0 45
46 98 86 99 12 0 50 -9 84 -20 75 -24 81 -24 74 -5 -4 9 0 15 10 15 9 0 16 -6
17 -12 0 -7 4 -3 9 10 5 12 7 30 4 40 -5 15 -4 15 6 -1 10 -15 14 -16 27 -5 9
7 26 13 37 14 12 1 30 5 40 9 16 7 18 5 13 -9 -4 -10 -7 -24 -7 -32 0 -8 -9
-14 -20 -14 -12 0 -24 -10 -30 -22 -8 -22 -9 -22 -9 5 -1 15 -5 27 -10 27 -13
0 -32 -26 -24 -33 3 -4 -6 -7 -21 -7 -17 0 -26 -5 -24 -12 3 -7 28 -12 64 -12
32 0 62 -5 66 -11 5 -6 8 -3 8 6 0 11 15 21 43 28 43 12 78 9 211 -20 46 -9
61 -10 64 -1 2 7 10 12 18 12 20 0 51 50 36 59 -12 7 -11 65 1 77 3 3 3 12 0
20 -3 8 0 14 7 14 6 0 8 -4 5 -10 -3 -6 -1 -10 6 -10 6 0 9 -8 7 -18 -4 -15 0
-18 21 -17 41 3 137 28 124 32 -7 3 -13 13 -13 24 0 23 47 79 67 79 7 0 13 5
13 10 0 6 6 10 13 9 23 -4 64 19 69 39 3 11 18 26 34 33 15 8 29 20 32 27 3
10 -3 10 -27 -2 -17 -9 -31 -21 -31 -26 0 -6 -4 -10 -10 -10 -5 0 -9 3 -8 8 0
4 -2 15 -7 25 -11 26 5 37 61 41 27 2 50 4 52 5 1 0 -5 17 -13 37 -8 20 -15
42 -15 48 1 18 29 -37 30 -57 0 -22 27 -34 43 -18 9 9 9 16 -1 31 -10 16 -10
20 2 20 7 0 16 -9 19 -20 7 -29 24 -25 42 10 21 41 20 59 -6 53 -16 -5 -20 -2
-18 13 2 10 0 25 -4 32 -5 7 -4 12 2 12 6 0 11 8 11 18 0 10 -3 13 -8 6 -4 -6
-17 -14 -30 -18 -12 -4 -20 -11 -17 -16 6 -10 -13 -25 -21 -17 -8 8 27 57 40
57 6 0 17 14 25 30 8 19 26 36 48 45 44 19 52 14 23 -13 -12 -11 -19 -25 -15
-31 3 -6 1 -11 -4 -11 -6 0 -11 -7 -11 -15 0 -8 -4 -15 -10 -15 -5 0 -10 -10
-9 -22 l0 -23 11 23 c12 23 32 29 43 12 3 -5 -3 -10 -14 -10 -12 0 -21 -7 -21
-15 0 -37 58 -3 86 50 18 36 18 42 -5 50 -12 3 -18 12 -15 20 3 8 12 11 20 8
8 -3 14 1 14 11 0 10 -8 15 -22 13 -30 -3 -30 25 0 38 l22 10 0 453 c0 355 -3
452 -12 446 -7 -5 -42 -9 -78 -9 -41 -1 -80 -8 -105 -20 -22 -11 -49 -18 -61
-17 -12 2 -80 -26 -151 -62 -70 -36 -137 -66 -148 -66 -11 0 -51 -14 -90 -30
-38 -17 -74 -30 -80 -30 -5 0 -32 -9 -60 -19 -108 -41 -128 -45 -139 -29 -7 9
-19 12 -36 7 -14 -3 -46 -4 -72 -1 -29 3 -48 1 -48 -5 0 -6 30 -14 68 -18 174
-17 195 -24 81 -26 -114 -3 -185 1 -296 16 -97 12 -107 16 -203 74 -55 34
-105 61 -111 61 -5 0 -12 -7 -15 -15 -7 -17 -41 -20 -63 -6 -11 7 -10 12 8 22
11 8 21 18 20 24 0 5 -59 46 -131 90 -72 44 -174 108 -227 142 l-96 63 1017 0
c804 0 1017 -3 1021 -12 3 -7 6 -3 6 10 l1 22 -2540 0 -2540 0 0 -103z m550
-29 c0 -16 -3 -19 -11 -11 -6 6 -8 16 -5 22 11 17 16 13 16 -11z m1470 8 c0
-2 -7 -9 -15 -16 -12 -10 -15 -10 -15 4 0 9 7 16 15 16 8 0 15 -2 15 -4z m-56
-23 c-20 -15 -34 -17 -34 -5 0 14 11 21 32 19 18 -1 18 -2 2 -14z m-1514 -1
c0 -8 -121 -62 -138 -62 -12 0 112 69 126 69 6 1 12 -3 12 -7z m1177 -24 c-3
-7 -5 -2 -5 12 0 14 2 19 5 13 2 -7 2 -19 0 -25z m-1042 -85 c3 -54 11 -111
16 -127 5 -16 9 -51 9 -77 0 -26 11 -157 25 -291 34 -320 54 -532 61 -643 5
-84 5 -89 -10 -70 -16 20 -17 20 -15 -5 5 -89 -16 -43 -26 58 -6 61 -5 71 8
66 10 -3 16 3 19 20 4 20 0 27 -16 33 -36 12 -60 11 -76 -2 -14 -12 -104 -35
-136 -35 -31 0 -3 18 46 30 51 12 76 30 43 30 -10 0 -33 -4 -51 -9 -35 -10
-35 -10 -26 13 5 12 11 13 24 6 15 -8 20 -6 25 11 4 12 13 18 20 15 14 -5 28
8 38 35 4 12 0 15 -18 12 -20 -4 -22 -2 -18 21 4 17 14 28 30 32 14 4 22 12
19 20 -3 7 0 15 7 17 7 2 9 7 5 11 -3 4 -16 2 -28 -4 -12 -6 -24 -10 -26 -8
-4 5 -20 147 -31 271 -3 42 -9 77 -13 77 -25 0 -100 -34 -100 -46 0 -8 -3 -13
-7 -13 -21 3 -32 -2 -27 -15 3 -7 -2 -16 -11 -20 -9 -3 -13 -2 -10 4 11 18 -8
11 -32 -11 -19 -18 -25 -20 -38 -9 -19 16 -2 40 29 40 33 0 41 12 41 55 -1 47
4 67 16 60 4 -3 6 -19 2 -35 -7 -36 0 -37 67 -6 l52 24 -46 7 c-25 4 -46 9
-46 10 0 18 15 33 27 28 10 -4 23 3 34 18 26 34 24 39 -13 32 -23 -5 -29 -3
-24 6 5 7 14 10 22 7 8 -3 14 -1 14 4 0 5 -10 10 -22 12 -20 3 -18 6 16 21 21
9 46 17 55 17 9 0 25 12 35 27 18 24 18 33 7 132 -12 117 -15 218 -4 208 3 -4
12 2 20 13 8 11 18 20 23 20 4 0 11 -44 15 -97z m1209 43 c-3 -9 -10 -13 -16
-10 -5 3 -4 12 3 20 15 18 22 13 13 -10z m-167 -8 c-3 -8 -6 -5 -6 6 -1 11 2
17 5 13 3 -3 4 -12 1 -19z m429 -23 c-26 -19 -42 -19 -26 0 7 8 20 15 29 15
13 -1 13 -3 -3 -15z m-1967 -41 c58 -66 91 -179 55 -191 -7 -2 -13 16 -17 45
-7 57 -38 130 -72 166 -13 15 -20 26 -15 26 4 0 26 -21 49 -46z m1635 1 c11
-8 15 -15 10 -15 -6 0 -19 7 -30 15 -10 8 -14 14 -9 14 6 0 19 -6 29 -14z
m131 5 c3 -5 1 -10 -4 -10 -6 0 -11 5 -11 10 0 6 2 10 4 10 3 0 8 -4 11 -10z
m-55 -8 c0 -14 -11 -21 -26 -15 -8 3 -11 9 -8 14 7 11 34 12 34 1z m30 -13 c0
-6 -4 -7 -10 -4 -5 3 -10 11 -10 16 0 6 5 7 10 4 6 -3 10 -11 10 -16z m631 -7
c-6 -11 -17 -22 -26 -26 -11 -4 -9 3 7 24 24 32 36 34 19 2z m74 -31 c-14 -13
-93 -26 -80 -13 11 11 38 19 70 21 12 1 15 -3 10 -8z m-388 -27 c-3 -3 -12 -4
-19 -1 -8 3 -5 6 6 6 11 1 17 -2 13 -5z m2313 -25 c-7 -11 -14 -18 -17 -15 -3
3 0 12 7 21 18 21 23 19 10 -6z m40 -9 c0 -5 -4 -10 -10 -10 -5 0 -10 5 -10
10 0 6 5 10 10 10 6 0 10 -4 10 -10z m-2908 -22 c-14 -14 -16 -32 -3 -24 5 3
11 -1 15 -9 7 -19 26 -19 26 0 0 9 9 15 22 15 16 0 19 -3 11 -11 -6 -6 -9 -18
-6 -25 3 -8 0 -14 -6 -14 -27 0 -8 -28 24 -34 19 -4 37 -11 40 -15 5 -9 -34 1
-142 39 -35 12 -63 24 -63 27 0 2 9 2 20 -1 11 -3 30 -9 42 -12 20 -6 21 -5 9
10 -7 9 -19 16 -26 16 -7 0 -23 9 -36 20 l-24 20 28 -10 c22 -8 34 -7 50 5 26
18 36 20 19 3z m1750 -8 c10 0 18 -4 18 -10 0 -5 20 -10 43 -10 37 0 46 -4 55
-25 14 -30 17 -295 3 -295 -5 0 -14 6 -20 14 -7 8 -33 17 -59 21 -79 11 -77 6
-79 176 -1 112 1 149 10 140 6 -6 19 -11 29 -11z m-1639 -25 c-7 -21 -13 -19
-13 6 0 11 4 18 10 14 5 -3 7 -12 3 -20z m2727 17 c0 -17 -29 -47 -37 -38 -4
5 -2 11 5 13 6 3 12 11 12 19 0 8 5 14 10 14 6 0 10 -4 10 -8z m-2052 -51
c-13 -22 -29 -23 -36 -3 -2 7 7 16 20 21 29 11 32 8 16 -18z m-683 -1 c3 -5
-1 -10 -10 -10 -9 0 -13 5 -10 10 3 6 8 10 10 10 2 0 7 -4 10 -10z m-1232 -22
c9 -32 -4 -44 -19 -17 -12 24 -10 39 5 39 5 0 11 -10 14 -22z m1667 8 c0 -8
-4 -18 -10 -21 -5 -3 -10 3 -10 14 0 12 5 21 10 21 6 0 10 -6 10 -14z m60 -17
c0 -6 -4 -7 -10 -4 -5 3 -10 11 -10 16 0 6 5 7 10 4 6 -3 10 -11 10 -16z
m2240 12 c30 -7 38 -31 11 -31 -10 0 -45 3 -79 6 -45 5 -59 10 -55 20 5 15 75
17 123 5z m-2625 -23 c7 -7 1 -8 -20 -4 -16 4 -34 12 -40 18 -7 7 -1 8 20 4
17 -4 35 -12 40 -18z m2833 -12 c12 -12 -7 -16 -46 -10 -23 4 -39 10 -36 15 5
9 72 5 82 -5z m126 -26 c10 -10 -70 -1 -99 11 -11 4 5 5 35 2 30 -3 59 -9 64
-13z m206 -19 c19 -6 50 -11 67 -11 18 0 33 -5 33 -11 0 -7 -9 -9 -22 -5 -13
4 -74 9 -137 12 -114 5 -131 8 -131 24 0 11 146 4 190 -9z m-379 -87 c27 -9
49 -21 49 -27 0 -5 8 -16 18 -24 15 -12 15 -13 -8 -9 -14 3 -61 8 -104 11 -44
3 -82 8 -85 11 -11 11 17 39 45 45 16 4 30 7 32 8 2 0 25 -6 53 -15z m-2161
-43 c0 -5 -7 -11 -15 -15 -15 -5 -20 5 -8 17 9 10 23 9 23 -2z m-2110 -5 c0
-3 -4 -8 -10 -11 -5 -3 -10 -1 -10 4 0 6 5 11 10 11 6 0 10 -2 10 -4z m1765
-6 c3 -5 1 -10 -4 -10 -6 0 -11 5 -11 10 0 6 2 10 4 10 3 0 8 -4 11 -10z m248
-36 c-3 -8 -11 -13 -18 -10 -7 2 -18 -1 -24 -7 -6 -6 -11 -7 -11 -3 0 12 32
35 47 36 7 0 10 -7 6 -16z m1954 -36 c-3 -7 -5 -2 -5 12 0 14 2 19 5 13 2 -7
2 -19 0 -25z m-100 -10 c-3 -7 -5 -2 -5 12 0 14 2 19 5 13 2 -7 2 -19 0 -25z
m-4117 -4 c0 -8 -4 -14 -9 -14 -11 0 -22 26 -14 34 9 9 23 -3 23 -20z m2489 5
c67 -7 102 -16 122 -31 39 -29 71 -101 68 -152 -2 -29 6 -59 26 -101 39 -83
47 -208 16 -275 -20 -41 -21 -42 -16 -12 3 23 1 32 -9 32 -11 0 -13 16 -9 78
7 95 -7 146 -51 188 -18 16 -37 37 -42 45 -10 16 -56 49 -100 72 -24 12 -40
14 -63 7 -17 -5 -31 -7 -31 -4 0 3 -9 0 -20 -6 -12 -7 -18 -16 -13 -23 4 -6 7
-23 7 -37 0 -18 -5 -24 -18 -22 -10 2 -23 -1 -29 -6 -7 -5 -32 -12 -56 -16
-25 -4 -62 -16 -83 -28 -36 -20 -38 -24 -38 -70 0 -85 41 -136 101 -123 33 7
38 -5 12 -31 -22 -22 -22 -84 0 -177 9 -37 16 -84 16 -105 -1 -20 4 -49 10
-64 12 -32 4 -35 -25 -12 -10 8 -13 13 -6 9 8 -4 12 2 12 18 0 26 -20 40 -45
31 -28 -11 -15 -42 35 -80 31 -24 55 -52 65 -77 9 -22 24 -41 35 -44 27 -7 25
-23 -3 -23 -17 0 -27 10 -40 40 -9 22 -21 40 -27 40 -5 0 -10 7 -10 15 0 8 -4
15 -10 15 -15 0 -13 -9 15 -57 14 -23 25 -43 23 -44 -47 -13 -88 2 -57 21 19
13 -8 42 -32 35 -20 -7 -108 60 -109 82 0 6 12 21 28 32 21 16 23 20 10 21
-10 0 -18 5 -18 11 0 6 -22 33 -49 60 -35 36 -48 55 -44 69 3 11 0 20 -6 20
-6 0 -11 5 -11 10 0 6 7 10 15 10 22 0 35 42 28 92 -3 24 -6 97 -7 163 -2 206
44 288 201 362 40 19 78 41 84 50 8 8 21 12 33 9 12 -3 63 -11 115 -17z
m-2349 -25 c0 -27 -24 -33 -34 -8 -7 19 12 47 25 38 5 -3 9 -16 9 -30z m1964
-10 c4 -10 1 -14 -6 -12 -15 5 -23 28 -10 28 5 0 13 -7 16 -16z m-1794 -42 c0
-17 -37 -48 -47 -38 -8 8 8 27 18 21 5 -4 9 3 9 14 0 12 5 21 10 21 6 0 10 -8
10 -18z m1750 -33 c0 -6 -4 -7 -10 -4 -5 3 -10 11 -10 16 0 6 5 7 10 4 6 -3
10 -11 10 -16z m-2075 -19 c3 -5 -1 -10 -9 -10 -9 0 -16 5 -16 10 0 6 4 10 9
10 6 0 13 -4 16 -10z m1948 -33 c-3 -5 -10 -4 -15 1 -6 6 -7 16 -3 22 6 9 9 9
16 -1 4 -7 5 -17 2 -22z m1992 13 l70 -7 -95 -1 c-52 0 -113 3 -135 7 -37 8
-35 9 25 9 36 0 97 -4 135 -8z m-3965 -10 c0 -5 -4 -10 -10 -10 -5 0 -10 5
-10 10 0 6 5 10 10 10 6 0 10 -4 10 -10z m4295 -11 c5 -5 -9 -9 -35 -9 -68 0
-150 12 -145 20 7 11 167 0 180 -11z m-838 -56 c12 -18 13 -31 7 -56 -8 -28
-15 -33 -54 -39 -39 -7 -47 -5 -62 13 -22 26 -23 48 -2 77 32 45 83 48 111 5z
m1563 20 c0 -16 -56 -33 -104 -31 l-51 1 44 4 c25 3 54 11 65 19 22 15 46 19
46 7z m-3040 -17 c0 -3 -4 -8 -10 -11 -5 -3 -10 -1 -10 4 0 6 5 11 10 11 6 0
10 -2 10 -4z m2628 -3 c58 -4 85 -10 89 -20 9 -22 -1 -25 -86 -25 l-81 0 0
-83 c0 -95 0 -95 88 -95 72 0 87 -9 77 -46 -4 -16 -8 -44 -9 -61 l-1 -33 -77
0 c-62 0 -78 -3 -78 -15 0 -8 -9 -19 -19 -25 -11 -5 -22 -20 -24 -32 -2 -13
-5 -2 -6 23 l-1 47 -47 9 -48 8 0 65 0 65 50 4 c38 2 45 5 30 11 -17 7 -17 9
-2 9 12 1 17 9 17 31 0 17 -7 33 -17 39 -15 9 -16 10 -2 11 11 0 16 10 17 35
1 32 -1 35 -36 40 -55 10 -62 13 -62 30 0 17 79 20 228 8z m-3678 -50 c0 -43
-5 -41 -13 5 -4 18 -2 32 3 32 6 0 10 -16 10 -37z m-563 -35 c-2 -13 -4 -3 -4
22 0 25 2 35 4 23 2 -13 2 -33 0 -45z m1246 35 c-7 -2 -21 -2 -30 0 -10 3 -4
5 12 5 17 0 24 -2 18 -5z m-1553 -29 c0 -8 -4 -14 -10 -14 -5 0 -10 9 -10 21
0 11 5 17 10 14 6 -3 10 -13 10 -21z m868 -39 c-2 -3 -56 -18 -119 -34 -107
-27 -142 -30 -122 -10 14 14 238 67 242 57 1 -5 1 -11 -1 -13z m1279 -7 c-3
-7 -5 -2 -5 12 0 14 2 19 5 13 2 -7 2 -19 0 -25z m-2053 -12 c-6 -16 -24 -23
-24 -8 0 10 22 33 27 28 2 -2 1 -11 -3 -20z m4416 14 c0 -5 -2 -10 -4 -10 -3
0 -8 5 -11 10 -3 6 -1 10 4 10 6 0 11 -4 11 -10z m-4470 -21 c0 -5 -9 -9 -20
-9 -11 0 -20 5 -20 11 0 5 5 7 10 4 6 -3 10 -1 10 5 0 6 5 8 10 5 6 -3 10 -10
10 -16z m343 -16 c-5 -13 -2 -15 15 -11 12 4 22 2 22 -3 0 -5 -13 -9 -29 -9
-24 0 -28 3 -24 20 3 11 9 20 14 20 5 0 6 -7 2 -17z m393 -14 c-60 -16 -111
-27 -114 -25 -4 4 28 14 138 45 19 5 46 9 60 9 14 0 -24 -13 -84 -29z m1583
-13 c18 -21 -11 -86 -38 -86 -22 0 -28 14 -11 25 5 3 7 12 4 20 -6 15 12 55
25 55 5 0 14 -6 20 -14z m2453 -108 c-9 -9 -15 -9 -24 0 -9 9 -7 12 12 12 19
0 21 -3 12 -12z m-192 -112 c0 -3 -4 -8 -10 -11 -5 -3 -10 -1 -10 4 0 6 5 11
10 11 6 0 10 -2 10 -4z m-50 -27 c0 -6 9 -9 20 -6 11 3 20 1 20 -3 0 -5 9 -12
21 -15 14 -5 18 -10 11 -17 -6 -6 -17 -5 -30 3 -12 7 -25 9 -29 5 -4 -5 -2
-11 5 -13 23 -9 1 -23 -25 -17 -19 5 -30 2 -40 -11 -12 -18 -13 -18 -13 3 0
20 14 28 43 23 4 0 7 6 7 14 0 9 -9 15 -21 15 -18 0 -19 2 -9 15 15 18 40 20
40 4z m-2219 -39 c19 -10 19 -12 2 -35 -22 -30 -29 -31 -43 -4 -9 15 -8 24 1
35 14 17 15 17 40 4z m1672 -27 c-17 -11 -20 -19 -13 -32 6 -13 3 -20 -11 -29
-17 -11 -18 -9 -15 31 2 23 4 43 5 45 1 1 13 2 29 1 l27 0 -22 -16z m-3412
-17 c-7 -8 -10 -24 -6 -35 3 -10 1 -22 -5 -26 -14 -9 -13 58 2 73 16 16 24 6
9 -12z m536 -2 c-3 -3 -12 -4 -19 -1 -8 3 -5 6 6 6 11 1 17 -2 13 -5z m2769
-9 c-8 -8 -17 -15 -20 -15 -3 0 -3 7 0 15 4 8 13 15 21 15 12 0 12 -2 -1 -15z
m23 -24 c-13 -11 -26 -18 -28 -15 -7 7 21 34 36 34 10 0 8 -6 -8 -19z m-2393
-36 c-4 -14 -2 -25 3 -25 6 0 8 -7 4 -16 -3 -8 -12 -13 -19 -10 -7 3 -16 0
-20 -6 -5 -7 -11 -5 -20 6 -7 10 -17 15 -23 11 -6 -3 -11 1 -11 9 0 22 34 38
49 23 9 -9 13 -7 17 11 4 12 11 22 16 22 6 0 7 -11 4 -25z m-1056 -10 c0 -16
-6 -25 -15 -25 -9 0 -15 9 -15 25 0 16 6 25 15 25 9 0 15 -9 15 -25z m1110 -4
c0 -6 -4 -13 -10 -16 -5 -3 -10 1 -10 9 0 9 5 16 10 16 6 0 10 -4 10 -9z
m2370 2 c10 9 12 9 8 -3 -3 -8 -14 -15 -25 -16 -27 -1 -43 -12 -43 -28 0 -31
-72 -54 -78 -25 -2 11 10 19 37 28 47 14 62 31 29 32 -23 1 -23 1 2 8 14 5 32
4 41 0 9 -5 21 -3 29 4z m-3366 -15 c-3 -4 -9 -8 -15 -8 -5 0 -9 4 -9 8 0 5 7
9 15 9 8 0 12 -4 9 -9z m1019 -39 c-6 -6 -9 -18 -6 -25 4 -10 -5 -14 -33 -14
-36 1 -38 2 -20 15 11 8 17 18 13 22 -4 3 3 12 16 18 25 14 47 1 30 -16z m228
18 c-1 -12 -15 -9 -19 4 -3 6 1 10 8 8 6 -3 11 -8 11 -12z m-966 -7 c3 -5 1
-10 -4 -10 -6 0 -11 5 -11 10 0 6 2 10 4 10 3 0 8 -4 11 -10z m915 1 c0 -6 -4
-13 -10 -16 -5 -3 -10 1 -10 9 0 9 5 16 10 16 6 0 10 -4 10 -9z m-75 -22 c5
-6 2 -9 -8 -9 -9 0 -17 -6 -17 -14 0 -7 -9 -16 -20 -19 -16 -4 -20 0 -20 17 0
12 -6 28 -12 35 -11 10 -5 11 27 6 22 -4 44 -11 50 -16z m1225 6 c-14 -16 -40
-20 -40 -6 0 10 17 19 39 20 11 1 11 -2 1 -14z m993 -5 c3 -11 1 -20 -4 -20
-5 0 -9 9 -9 20 0 11 2 20 4 20 2 0 6 -9 9 -20z m-2173 -8 c0 -13 -39 -32 -45
-22 -3 6 1 10 9 10 9 0 16 5 16 10 0 6 5 10 10 10 6 0 10 -3 10 -8z m1135 -12
c3 -5 1 -10 -4 -10 -6 0 -11 5 -11 10 0 6 2 10 4 10 3 0 8 -4 11 -10z m-1505
-20 c0 -5 -7 -10 -15 -10 -8 0 -15 5 -15 10 0 6 7 10 15 10 8 0 15 -4 15 -10z
m140 -6 c0 -11 -5 -14 -16 -10 -9 3 -18 6 -20 6 -3 0 -2 5 1 10 10 16 35 12
35 -6z m-850 -8 c0 -8 -7 -17 -16 -20 -26 -10 -64 -7 -64 5 0 6 9 9 20 6 13
-3 20 0 20 9 0 8 9 14 20 14 11 0 20 -6 20 -14z m1150 4 c0 -5 -5 -10 -11 -10
-5 0 -7 5 -4 10 3 6 8 10 11 10 2 0 4 -4 4 -10z m1214 -19 c12 -2 -14 -31 -28
-31 -6 0 -4 5 4 11 11 8 4 9 -27 6 -40 -5 -60 2 -47 16 5 4 63 3 98 -2z
m-1204 -47 c-16 -29 -63 -64 -54 -39 4 8 9 15 13 15 4 0 15 17 26 38 10 22 20
32 23 24 2 -8 -1 -25 -8 -38z m-540 16 c0 -5 -2 -10 -4 -10 -3 0 -8 5 -11 10
-3 6 -1 10 4 10 6 0 11 -4 11 -10z m246 -2 c-3 -7 -9 -21 -12 -30 -4 -10 -10
-18 -15 -18 -10 0 -12 43 -2 53 11 12 35 7 29 -5z m114 3 c0 -5 -6 -11 -12
-14 -7 -3 1 -10 17 -17 29 -11 29 -12 11 -26 -20 -14 -16 -18 17 -15 9 1 17
-3 17 -8 0 -6 -7 -11 -15 -11 -8 0 -15 -4 -15 -10 0 -25 -21 -6 -40 36 -17 36
-19 49 -9 60 13 16 29 19 29 5z m1340 -24 c0 -20 -1 -20 -16 -5 -9 9 -13 21
-9 27 10 16 25 3 25 -22z m1270 17 c0 -8 -4 -12 -10 -9 -5 3 -10 10 -10 16 0
5 5 9 10 9 6 0 10 -7 10 -16z m-2844 -15 c14 -16 16 -23 6 -26 -6 -3 -10 -8
-7 -13 6 -10 -34 -25 -42 -16 -4 3 1 6 10 6 10 0 17 8 17 20 0 11 -4 20 -10
20 -5 0 -10 7 -10 15 0 21 14 19 36 -6z m-646 7 c0 -3 -4 -8 -10 -11 -5 -3
-10 -1 -10 4 0 6 5 11 10 11 6 0 10 -2 10 -4z m790 -6 c0 -5 -4 -10 -10 -10
-5 0 -10 5 -10 10 0 6 5 10 10 10 6 0 10 -4 10 -10z m1528 -8 c2 -7 -2 -12 -9
-12 -19 0 -49 -31 -49 -52 0 -10 5 -18 11 -18 5 0 7 -5 4 -10 -4 -6 -10 -8
-15 -5 -5 3 -11 1 -15 -5 -13 -21 -24 -9 -20 23 4 25 3 28 -4 12 -9 -18 -10
-18 -10 6 -1 28 15 50 33 43 7 -3 21 4 31 15 21 21 36 22 43 3z m-2470 -36
c-21 -31 -38 -39 -38 -16 0 11 41 50 52 50 4 0 -2 -15 -14 -34z m2566 8 c11
-28 7 -36 -15 -29 -14 5 -19 3 -15 -3 3 -6 1 -12 -5 -14 -8 -3 -6 -9 4 -20 11
-11 13 -18 5 -26 -6 -6 -12 -22 -14 -35 -2 -20 1 -23 27 -19 33 5 37 -7 10
-32 -14 -12 -21 -14 -26 -6 -4 7 -18 10 -32 7 -20 -4 -24 -1 -20 15 4 15 3 17
-8 8 -24 -20 -28 8 -5 32 31 33 42 66 30 89 -8 14 -7 23 2 34 17 19 54 19 62
-1z m-1684 -31 c0 -28 -21 -30 -37 -4 -14 22 -11 27 17 27 14 0 20 -7 20 -23z
m120 7 c0 -5 -4 -10 -9 -10 -6 0 -13 5 -16 10 -3 6 1 10 9 10 9 0 16 -4 16
-10z m-940 -20 c0 -5 -4 -10 -10 -10 -5 0 -10 5 -10 10 0 6 5 10 10 10 6 0 10
-4 10 -10z m925 -48 c-3 -3 -10 0 -16 8 -8 13 -11 13 -20 -3 -6 -9 -14 -15
-20 -12 -14 9 -11 25 6 25 8 0 15 8 15 17 0 14 4 13 21 -6 12 -12 18 -25 14
-29z m-100 -1 c-6 -5 -25 10 -25 20 0 5 6 4 14 -3 8 -7 12 -15 11 -17z m1555
12 c0 -20 -13 -53 -20 -53 -14 0 -20 44 -7 52 15 10 27 10 27 1z m580 -3 c0
-5 -5 -10 -11 -10 -5 0 -7 5 -4 10 3 6 8 10 11 10 2 0 4 -4 4 -10z m-2160 -20
c0 -5 -7 -10 -15 -10 -8 0 -15 5 -15 10 0 6 7 10 15 10 8 0 15 -4 15 -10z
m237 4 c-3 -3 -12 -4 -19 -1 -8 3 -5 6 6 6 11 1 17 -2 13 -5z m1533 -25 c7
-11 9 -23 6 -26 -7 -7 -46 26 -46 39 0 17 30 7 40 -13z m300 6 c0 -8 -9 -23
-21 -34 -14 -13 -19 -26 -15 -39 6 -17 3 -19 -14 -15 -13 3 -19 11 -16 19 10
27 -5 44 -40 44 -19 0 -34 5 -34 10 0 10 42 15 88 11 12 -1 22 3 22 9 0 5 7
10 15 10 8 0 15 -7 15 -15z m-2900 -15 c0 -20 -13 -40 -26 -40 -20 0 -29 27
-14 45 11 14 40 10 40 -5z m52 -10 c23 0 23 -9 1 -26 -28 -21 -39 -16 -41 18
-2 26 0 30 10 20 6 -6 20 -12 30 -12z m120 -8 c9 -9 7 -15 -8 -27 -26 -19 -38
-14 -42 18 -3 23 0 27 17 24 12 -2 27 -9 33 -15z m929 -9 c-12 -20 -14 -14 -5
12 4 9 9 14 11 11 3 -2 0 -13 -6 -23z m1860 -5 c4 -16 3 -30 -2 -34 -5 -3 -7
-10 -4 -15 4 -5 0 -9 -8 -9 -20 0 -31 -31 -15 -41 14 -9 56 -1 75 13 8 7 18 5
28 -6 21 -21 10 -38 -20 -30 -21 5 -23 3 -19 -18 5 -22 5 -22 -9 -5 -8 10 -21
17 -29 16 -7 -2 -23 3 -35 11 -30 19 -32 70 -3 77 22 6 26 18 10 28 -5 3 -10
15 -10 26 0 30 32 20 41 -13z m529 28 c0 -3 -4 -8 -10 -11 -5 -3 -10 -1 -10 4
0 6 5 11 10 11 6 0 10 -2 10 -4z m-2920 -26 c0 -5 -4 -10 -10 -10 -18 0 -10
-18 10 -25 11 -4 18 -11 15 -16 -7 -11 -88 -12 -83 -1 25 51 34 62 50 62 10 0
18 -4 18 -10z m450 0 c0 -5 -4 -10 -10 -10 -5 0 -10 5 -10 10 0 6 5 10 10 10
6 0 10 -4 10 -10z m1374 -15 c-4 -8 -7 -15 -9 -15 -2 0 -5 7 -9 15 -3 9 0 15
9 15 9 0 12 -6 9 -15z m616 6 c0 -6 -4 -13 -10 -16 -5 -3 -10 1 -10 9 0 9 5
16 10 16 6 0 10 -4 10 -9z m-1947 -8 c-7 -2 -13 -11 -13 -19 0 -8 -4 -14 -10
-14 -5 0 -10 4 -10 8 0 12 22 32 35 31 5 0 4 -3 -2 -6z m1542 -3 c-3 -5 -10
-10 -16 -10 -5 0 -9 5 -9 10 0 6 7 10 16 10 8 0 12 -4 9 -10z m-1655 -15 c0
-8 -4 -15 -10 -15 -5 0 -10 7 -10 15 0 8 5 15 10 15 6 0 10 -7 10 -15z m146
-21 c5 -26 4 -28 -11 -13 -9 9 -13 23 -9 33 8 21 14 16 20 -20z m1374 16 c0
-5 -9 -17 -19 -27 -17 -16 -19 -25 -11 -58 5 -21 6 -43 3 -48 -10 -17 -31 21
-26 47 3 13 0 27 -6 30 -6 4 -11 17 -11 29 0 16 3 18 12 9 17 -17 25 -15 31 8
5 20 27 28 27 10z m-1470 -32 c0 -13 -32 -6 -37 9 -3 7 3 9 16 6 12 -3 21 -10
21 -15z m2190 -20 c0 -4 -9 -8 -20 -8 -20 0 -28 29 -13 44 7 7 33 -21 33 -36z
m-2390 23 c0 -9 -24 -21 -43 -21 -6 0 -2 7 9 15 22 17 34 19 34 6z m60 -6 c0
-8 -7 -15 -15 -15 -8 0 -15 7 -15 15 0 8 7 15 15 15 8 0 15 -7 15 -15z m80 5
c0 -5 -4 -10 -10 -10 -5 0 -10 5 -10 10 0 6 5 10 10 10 6 0 10 -4 10 -10z
m-468 -37 c-10 -4 -10 -8 -1 -19 9 -11 7 -14 -10 -14 -12 0 -21 6 -21 15 0 8
-4 15 -10 15 -5 0 -10 5 -10 10 0 6 7 10 15 10 8 0 15 5 15 12 0 7 7 5 18 -6
13 -14 14 -20 4 -23z m88 16 c0 -5 -7 -9 -15 -9 -8 0 -15 -8 -15 -17 -1 -16
-2 -16 -15 1 -19 25 -19 40 0 32 8 -3 15 -1 15 4 0 5 7 7 15 4 8 -4 15 -10 15
-15z m164 -2 c16 -12 16 -14 -3 -31 -11 -10 -26 -16 -34 -13 -8 3 -13 -3 -14
-15 -3 -29 -9 -32 -35 -14 l-22 16 23 0 c14 0 21 3 18 7 -4 3 1 12 11 19 9 7
18 17 18 23 1 6 2 13 3 16 2 9 17 5 35 -8z m1776 -17 c9 13 11 13 20 0 6 -10
3 -21 -11 -36 -16 -17 -17 -24 -8 -30 7 -4 14 -3 17 4 2 7 11 12 20 12 10 0
31 9 47 20 42 28 56 24 21 -6 -23 -21 -26 -28 -15 -35 11 -7 10 -11 -6 -23
-11 -8 -24 -12 -29 -8 -6 3 -24 7 -40 9 -33 4 -46 17 -46 49 0 11 -5 25 -11
31 -6 6 -8 17 -4 24 6 9 12 7 22 -7 12 -16 15 -17 23 -4z m74 4 c4 -9 4 -19 2
-21 -8 -8 -26 8 -26 23 0 19 16 18 24 -2z m-1994 -4 c0 -5 -5 -10 -11 -10 -5
0 -7 5 -4 10 3 6 8 10 11 10 2 0 4 -4 4 -10z m270 -20 c-12 -11 -20 -26 -17
-34 4 -10 1 -13 -9 -9 -13 5 -18 17 -15 36 2 11 -17 9 -24 -3 -3 -5 -15 -10
-26 -10 -11 0 -17 5 -14 10 3 6 1 10 -6 10 -10 0 -10 3 -1 12 8 8 15 8 27 -2
13 -11 18 -11 24 -2 4 7 15 10 24 7 9 -4 24 -2 34 3 27 16 29 5 3 -18z m1810
14 c0 -8 -5 -12 -10 -9 -6 4 -8 11 -5 16 9 14 15 11 15 -7z m-1579 -21 c-12
-20 -14 -14 -5 12 4 9 9 14 11 11 3 -2 0 -13 -6 -23z m2138 18 c8 -5 11 -16 7
-29 -7 -21 -7 -21 -27 -1 -27 27 -13 51 20 30z m-2619 -36 c9 -11 10 -15 1
-15 -7 0 -19 7 -27 15 -13 13 -13 15 -1 15 8 0 20 -7 27 -15z m304 6 c8 -13
-11 -61 -24 -61 -14 0 -12 27 3 34 9 5 9 7 -1 12 -6 3 -10 10 -6 15 7 12 21
12 28 0z m1738 -33 c-6 -6 -7 0 -4 19 5 21 7 23 10 9 2 -10 0 -22 -6 -28z
m-2092 20 c0 -7 -11 -14 -25 -14 -24 -2 -32 6 -18 19 11 12 43 8 43 -5z m410
-8 c0 -5 -4 -10 -10 -10 -5 0 -10 5 -10 10 0 6 5 10 10 10 6 0 10 -4 10 -10z
m-550 -20 c0 -5 -7 -7 -15 -4 -8 4 -12 10 -9 15 6 11 24 2 24 -11z m390 5 c0
-8 -7 -15 -15 -15 -26 0 -18 20 13 29 1 1 2 -6 2 -14z m320 -14 c52 -32 52
-32 9 -139 -16 -41 -27 -78 -23 -83 3 -5 1 -9 -5 -9 -15 0 -41 -54 -41 -85 0
-15 -4 -34 -10 -44 -5 -10 -11 -49 -13 -88 -2 -38 -7 -74 -11 -81 -4 -7 -2
-12 4 -12 6 0 8 -4 5 -10 -3 -5 0 -10 8 -10 8 0 20 -7 28 -16 18 -22 -3 -34
-64 -34 -56 0 -60 -17 -7 -34 l33 -11 -3 -140 c-6 -255 0 -365 23 -393 6 -7
19 -11 29 -9 24 7 35 -13 14 -25 -25 -14 -19 -37 12 -44 65 -14 78 -24 90 -68
6 -23 8 -52 5 -64 -4 -16 -1 -22 11 -22 23 0 51 -57 35 -76 -15 -18 -23 -12
-43 31 -11 22 -24 35 -36 35 -46 0 -50 -93 -6 -128 16 -12 25 -31 28 -60 5
-60 2 -58 -55 28 -12 19 -33 40 -45 46 -13 6 -23 15 -22 20 3 28 -9 42 -31 37
-23 -6 -23 -5 -6 14 27 31 21 43 -25 45 l-43 1 39 4 c45 5 45 -6 -3 168 -38
135 -60 290 -64 453 -2 76 -8 127 -15 134 -17 17 -15 48 3 54 8 4 15 10 15 15
0 6 -9 5 -21 -2 -29 -15 -48 3 -28 27 7 9 14 24 14 32 0 8 6 17 14 20 8 3 11
0 7 -7 -4 -6 -3 -11 3 -11 16 0 25 22 23 53 -1 15 2 36 8 47 8 15 8 20 -2 20
-9 0 -9 3 0 12 15 15 16 58 2 58 -7 0 -7 7 0 21 16 28 59 192 78 294 9 43 19
65 30 64 4 0 27 -13 52 -28z m-110 15 c0 -3 -4 -8 -10 -11 -5 -3 -10 -1 -10 4
0 6 5 11 10 11 6 0 10 -2 10 -4z m-460 -26 c0 -5 -4 -10 -10 -10 -5 0 -10 5
-10 10 0 6 5 10 10 10 6 0 10 -4 10 -10z m-126 -22 c-9 -30 -10 -32 -30 -24
-16 6 -15 8 2 26 26 26 37 25 28 -2z m96 -3 c0 -8 7 -15 15 -15 19 0 19 -11 2
-35 -11 -14 -16 -15 -22 -4 -13 20 -16 69 -5 69 6 0 10 -7 10 -15z m373 -13
c-3 -13 -13 -22 -24 -22 -11 0 -23 -9 -27 -21 -8 -20 -8 -20 -20 5 -13 29 -3
41 27 31 14 -4 23 0 31 15 14 26 21 22 13 -8z m-548 -22 c3 -5 2 -10 -4 -10
-5 0 -13 5 -16 10 -3 6 -2 10 4 10 5 0 13 -4 16 -10z m1860 -37 c3 -20 26 -76
51 -124 66 -132 88 -203 72 -228 -7 -12 -18 -21 -24 -21 -7 0 -14 -8 -16 -17
-4 -15 -16 -18 -64 -18 l-59 0 2 75 c5 187 16 370 23 370 4 0 11 -17 15 -37z
m-1798 12 c-4 -8 -2 -17 4 -20 5 -4 7 -11 3 -16 -3 -6 1 -18 10 -28 22 -24 11
-51 -17 -43 -20 5 -21 4 -7 -13 14 -17 14 -17 -8 -4 -21 13 -24 12 -47 -16
-18 -22 -24 -26 -25 -13 0 9 5 20 10 23 6 3 10 11 10 16 0 6 -4 8 -9 4 -6 -3
-8 4 -6 15 2 11 -1 20 -6 20 -6 0 -8 4 -4 9 3 5 19 9 35 9 24 -1 27 -4 20 -18
-7 -13 -3 -16 26 -16 37 0 46 15 15 23 -11 3 -22 12 -25 20 -8 19 4 63 16 63
6 0 8 -7 5 -15z m-804 -12 c4 -3 18 -7 31 -9 13 -1 37 -10 53 -19 15 -9 19
-13 8 -9 -11 4 -31 6 -44 5 -13 0 -29 3 -35 8 -6 4 -23 11 -38 15 -21 5 -30 1
-42 -16 -16 -22 -16 -22 -16 -2 0 11 3 24 7 27 8 9 68 9 76 0z m855 -10 c-4
-21 -28 -30 -28 -10 0 9 -6 18 -12 20 -7 3 0 6 15 6 21 1 28 -3 25 -16z m227
7 c3 -5 1 -10 -4 -10 -6 0 -11 5 -11 10 0 6 2 10 4 10 3 0 8 -4 11 -10z m-12
-68 c-3 -12 -11 -22 -19 -22 -8 0 -11 6 -8 15 4 9 0 15 -10 15 -9 0 -16 5 -16
10 0 6 5 10 10 10 6 0 10 5 10 11 0 5 -6 7 -12 3 -9 -5 -9 -3 1 9 12 16 15 15
32 -7 11 -14 16 -31 12 -44z m-1185 46 c17 -17 15 -26 -5 -24 -10 0 -17 -5
-15 -11 1 -7 -2 -13 -8 -13 -5 0 -10 3 -10 8 0 4 -3 17 -6 30 -5 17 -2 22 13
22 10 0 24 -5 31 -12z m1021 -44 c-18 -21 -27 -17 -21 11 3 20 1 24 -12 19 -9
-3 -16 -1 -16 4 0 6 10 12 23 14 26 4 43 -27 26 -48z m251 35 c0 -15 -4 -19
-16 -15 -9 3 -20 6 -25 6 -4 0 -6 7 -3 15 9 24 44 19 44 -6z m162 -31 c4 -37
2 -48 -8 -48 -8 0 -14 4 -14 9 0 5 -9 11 -20 14 -28 7 -25 32 7 56 14 12 27
20 28 19 1 -2 5 -24 7 -50z m-1312 11 c0 -13 -18 -20 -25 -9 -10 16 -28 12
-21 -5 3 -8 1 -15 -4 -15 -13 0 -22 18 -15 29 7 12 65 11 65 0z m272 -21 c2
-13 9 -22 16 -20 6 1 12 -2 12 -8 0 -5 -9 -10 -20 -10 -21 0 -45 34 -35 50 11
17 23 11 27 -12z m732 7 c3 -9 0 -15 -9 -15 -8 0 -15 7 -15 15 0 8 4 15 9 15
5 0 11 -7 15 -15z m-314 -29 c0 -11 -19 -15 -25 -6 -3 5 1 10 9 10 9 0 16 -2
16 -4z m280 -36 c0 -5 -4 -10 -9 -10 -6 0 -13 5 -16 10 -3 6 1 10 9 10 9 0 16
-4 16 -10z m-290 -10 c0 -5 -7 -10 -16 -10 -8 0 -12 5 -9 10 3 6 10 10 16 10
5 0 9 -4 9 -10z m670 0 c11 -7 9 -11 -13 -19 -36 -14 -37 -14 -37 3 0 12 13
23 30 25 3 0 12 -3 20 -9z m-463 -32 c-3 -8 -6 -5 -6 6 -1 11 2 17 5 13 3 -3
4 -12 1 -19z m80 -10 c-3 -8 -6 -5 -6 6 -1 11 2 17 5 13 3 -3 4 -12 1 -19z
m686 8 c6 -15 -1 -26 -15 -26 -4 0 -8 9 -8 20 0 23 15 27 23 6z m-1093 -48 c0
-19 -16 -5 -17 14 -2 18 0 20 7 8 5 -8 10 -18 10 -22z m350 22 c0 -5 -4 -10
-10 -10 -5 0 -10 5 -10 10 0 6 5 10 10 10 6 0 10 -4 10 -10z m140 -10 c0 -5
-4 -10 -10 -10 -5 0 -10 5 -10 10 0 6 5 10 10 10 6 0 10 -4 10 -10z m74 -9 c4
-5 -3 -7 -14 -4 -23 6 -26 13 -6 13 8 0 17 -4 20 -9z m-290 -20 c4 -5 0 -12
-6 -14 -10 -4 -9 -8 2 -16 22 -16 30 -13 30 8 0 10 7 21 15 25 12 4 14 -3 13
-37 -1 -23 -7 -48 -14 -54 -14 -15 -28 -17 -20 -4 9 14 -20 45 -34 36 -10 -6
-9 -9 1 -16 7 -4 10 -11 6 -16 -9 -8 -60 20 -65 36 -2 6 6 11 18 11 12 0 18 4
15 10 -4 6 -4 17 -1 25 6 17 32 20 40 6z m216 -1 c0 -5 -9 -10 -20 -10 -11 0
-20 5 -20 10 0 6 9 10 20 10 11 0 20 -4 20 -10z m-12 -47 c5 -34 -35 -41 -64
-10 -12 14 -21 27 -19 29 2 2 21 4 42 3 31 0 39 -4 41 -22z m72 0 c0 -5 -11
-13 -25 -20 -28 -13 -34 1 -7 16 21 12 32 14 32 4z m595 -3 c3 -5 -1 -10 -9
-10 -9 0 -16 5 -16 10 0 6 4 10 9 10 6 0 13 -4 16 -10z m-79 -39 c-14 -22 -33
-12 -28 15 4 23 6 24 20 11 8 -8 11 -20 8 -26z m-286 -1 c0 -5 -7 -10 -15 -10
-8 0 -15 5 -15 10 0 6 7 10 15 10 8 0 15 -4 15 -10z m-290 -24 c0 -8 -7 -16
-15 -20 -13 -4 -14 -2 -5 14 13 23 20 26 20 6z m84 0 c-10 -8 -21 -12 -24 -10
-5 6 21 24 34 24 6 0 1 -6 -10 -14z m115 5 c10 -7 10 -10 1 -16 -7 -4 -15 -3
-19 2 -3 6 -13 13 -21 16 -11 4 -9 6 5 6 11 0 26 -3 34 -8z m-655 -27 c4 -9 4
-19 1 -22 -7 -8 -35 19 -29 29 8 14 21 11 28 -7z m466 -14 c0 -5 -2 -10 -4
-10 -3 0 -8 5 -11 10 -3 6 -1 10 4 10 6 0 11 -4 11 -10z m-180 -20 c0 -5 -7
-10 -15 -10 -8 0 -15 5 -15 10 0 6 7 10 15 10 8 0 15 -4 15 -10z m-460 -9 c0
-6 -4 -13 -10 -16 -5 -3 -10 1 -10 9 0 9 5 16 10 16 6 0 10 -4 10 -9z m1236
-3 c4 -7 3 -8 -4 -4 -6 4 -23 -1 -37 -10 -20 -13 -29 -14 -38 -5 -8 8 -7 11 6
11 9 0 17 5 17 10 0 14 47 13 56 -2z m-1026 -14 c0 -8 -4 -12 -10 -9 -5 3 -10
10 -10 16 0 5 5 9 10 9 6 0 10 -7 10 -16z m490 2 c0 -3 -4 -8 -10 -11 -5 -3
-10 -1 -10 4 0 6 5 11 10 11 6 0 10 -2 10 -4z m-464 -63 c-3 -3 -12 -3 -21 1
-14 5 -14 9 2 33 l18 27 3 -28 c2 -15 1 -30 -2 -33z m3857 11 c20 -7 19 -8
-10 -16 -18 -5 -33 -13 -33 -18 0 -6 -13 -10 -30 -10 -16 0 -30 3 -30 7 0 4
17 22 38 40 26 23 38 28 40 18 2 -8 13 -17 25 -21z m97 -18 c-5 -5 -16 -6 -25
-2 -13 5 -14 10 -5 27 11 20 12 20 25 2 8 -10 10 -22 5 -27z m-2974 19 c9 -8
11 -15 6 -15 -5 0 -15 7 -22 15 -7 8 -9 15 -6 15 4 0 14 -7 22 -15z m-776 -5
c0 -5 -4 -10 -9 -10 -6 0 -13 5 -16 10 -3 6 1 10 9 10 9 0 16 -4 16 -10z
m3512 -1 c17 -9 18 -13 7 -20 -11 -8 -11 -11 5 -20 17 -11 15 -13 -20 -25 -27
-9 -42 -10 -51 -2 -17 14 1 38 28 38 22 0 24 11 7 28 -15 15 -3 15 24 1z
m-3639 -14 c-3 -9 -8 -14 -10 -11 -3 3 -2 9 2 15 9 16 15 13 8 -4z m-410 -30
c-6 -17 -12 -18 -32 -6 -11 7 -10 11 5 19 23 13 35 7 27 -13z m527 9 c0 -8 -4
-12 -10 -9 -5 3 -10 10 -10 16 0 5 5 9 10 9 6 0 10 -7 10 -16z m3675 6 c3 -5
1 -10 -4 -10 -6 0 -11 5 -11 10 0 6 2 10 4 10 3 0 8 -4 11 -10z m-3627 -12
c-6 -18 -28 -21 -28 -4 0 9 7 16 16 16 9 0 14 -5 12 -12z m72 8 c0 -3 -4 -8
-10 -11 -5 -3 -10 -1 -10 4 0 6 5 11 10 11 6 0 10 -2 10 -4z m-590 -10 c0 -3
-4 -8 -10 -11 -5 -3 -10 -1 -10 4 0 6 5 11 10 11 6 0 10 -2 10 -4z m18 -26
c-13 -20 -28 -27 -28 -12 0 10 22 32 32 32 5 0 3 -9 -4 -20z m379 -12 c-2 -40
-18 -43 -28 -6 -7 28 -3 38 17 38 8 0 12 -12 11 -32z m-134 5 c2 -10 8 -27 12
-38 7 -18 6 -18 -8 -5 -18 18 -32 60 -19 60 5 0 12 -8 15 -17z m208 -34 c-9
-23 -10 -23 -10 -2 -1 12 2 30 6 40 6 15 8 15 11 2 1 -8 -2 -26 -7 -40z m1616
24 c10 -12 21 -14 55 -8 54 9 130 7 142 -5 4 -4 -8 -16 -28 -25 -32 -16 -37
-16 -51 -1 -26 26 -58 19 -105 -25 -44 -39 -44 -40 -16 -34 17 3 35 14 42 23
14 19 28 12 18 -9 -5 -13 -155 -130 -178 -138 -6 -2 -17 -10 -25 -18 -20 -20
-23 -11 -9 27 13 38 68 130 77 130 3 0 17 10 31 21 l25 20 -31 -15 c-34 -16
-81 -66 -110 -115 -10 -17 -21 -31 -25 -31 -11 0 7 78 25 105 12 18 13 25 4
25 -14 -1 -68 -83 -68 -105 0 -25 -12 -45 -27 -45 -12 0 -14 8 -8 38 10 57 47
111 111 164 54 43 63 47 99 43 22 -3 45 -13 52 -22z m-1860 -5 c-3 -8 -6 -5
-6 6 -1 11 2 17 5 13 3 -3 4 -12 1 -19z m992 1 c-7 -14 -14 -18 -21 -11 -13
13 -2 32 18 32 12 0 13 -4 3 -21z m2806 11 c-3 -5 -11 -10 -16 -10 -6 0 -7 5
-4 10 3 6 11 10 16 10 6 0 7 -4 4 -10z m-4080 -10 c3 -5 -3 -10 -14 -10 -12 0
-21 5 -21 10 0 6 6 10 14 10 8 0 18 -4 21 -10z m39 -6 c5 -14 4 -15 -9 -4 -17
14 -19 20 -6 20 5 0 12 -7 15 -16z m330 1 c-4 -8 -8 -15 -10 -15 -2 0 -4 7 -4
15 0 8 4 15 10 15 5 0 7 -7 4 -15z m-264 -4 c0 -5 -7 -14 -15 -21 -13 -10 -15
-9 -15 9 0 12 6 21 15 21 8 0 15 -4 15 -9z m585 -21 c3 -5 1 -10 -4 -10 -6 0
-11 5 -11 10 0 6 2 10 4 10 3 0 8 -4 11 -10z m65 0 c0 -5 -5 -10 -11 -10 -5 0
-7 5 -4 10 3 6 8 10 11 10 2 0 4 -4 4 -10z m3410 -20 c-9 -17 -50 -30 -50 -16
0 2 -3 11 -6 20 -5 13 1 16 30 16 34 0 36 -2 26 -20z m-3890 -32 c0 -10 -4
-18 -10 -18 -5 0 -10 9 -10 20 0 13 -5 18 -15 14 -8 -4 -15 -1 -15 6 0 6 4 9
9 5 5 -3 13 0 17 6 8 14 24 -8 24 -33z m3660 27 c7 -9 10 -18 6 -22 -3 -3 -6
-2 -6 4 0 6 -9 9 -20 6 -14 -4 -20 0 -20 11 0 20 24 21 40 1z m-4050 -15 c0
-5 -5 -10 -11 -10 -5 0 -7 5 -4 10 3 6 8 10 11 10 2 0 4 -4 4 -10z m2835 0 c8
-13 -37 -31 -49 -20 -4 5 -5 13 -2 19 9 14 43 14 51 1z m-2939 -25 c-6 -17 29
-22 39 -5 9 15 25 2 25 -21 0 -11 -7 -19 -17 -19 -11 0 -14 -3 -7 -10 5 -5 19
-7 32 -4 20 6 23 11 21 30 -1 11 36 32 45 27 5 -4 1 -12 -9 -19 -10 -8 -16
-17 -12 -21 4 -3 -3 -11 -16 -17 -12 -6 -23 -22 -25 -34 -4 -24 -22 -31 -22
-7 0 8 -18 26 -40 40 -29 18 -40 32 -40 50 0 16 6 25 16 25 10 0 14 -6 10 -15z
m214 5 c0 -5 -4 -10 -10 -10 -5 0 -10 5 -10 10 0 6 5 10 10 10 6 0 10 -4 10
-10z m470 -5 c0 -8 -4 -15 -10 -15 -5 0 -10 7 -10 15 0 8 5 15 10 15 6 0 10
-7 10 -15z m96 -11 c-4 -9 -9 -15 -11 -12 -3 3 -3 13 1 22 4 9 9 15 11 12 3
-3 3 -13 -1 -22z m363 13 c15 -19 1 -30 -17 -14 -10 7 -13 8 -9 1 4 -8 -2 -11
-18 -10 -29 1 -34 22 -7 29 31 8 39 7 51 -6z m-889 -7 c0 -5 -5 -10 -11 -10
-5 0 -7 5 -4 10 3 6 8 10 11 10 2 0 4 -4 4 -10z m735 0 c3 -6 -1 -7 -9 -4 -18
7 -21 14 -7 14 6 0 13 -4 16 -10z m1775 -28 c0 -15 -2 -15 -10 -2 -13 20 -13
33 0 25 6 -3 10 -14 10 -23z m1300 2 c0 -8 -4 -14 -10 -14 -5 0 -10 9 -10 21
0 11 5 17 10 14 6 -3 10 -13 10 -21z m-3905 -15 c-3 -5 1 -6 9 -3 11 4 16 0
16 -10 0 -9 -4 -16 -8 -16 -14 0 -43 36 -36 43 10 9 25 -3 19 -14z m113 10
c-2 -6 -8 -10 -13 -10 -5 0 -11 4 -13 10 -2 6 4 11 13 11 9 0 15 -5 13 -11z
m182 -29 c-12 -29 -14 -30 -31 -14 -25 23 -25 47 0 39 11 -3 22 -1 26 5 14 22
17 0 5 -30z m190 10 c0 -5 -4 -10 -10 -10 -5 0 -10 5 -10 10 0 6 5 10 10 10 6
0 10 -4 10 -10z m-41 -26 c6 -5 -20 -34 -31 -34 -5 0 -7 4 -3 9 3 5 1 12 -5
16 -19 12 -10 26 13 19 12 -3 24 -8 26 -10z m-639 -4 c0 -5 -5 -10 -11 -10 -5
0 -7 5 -4 10 3 6 8 10 11 10 2 0 4 -4 4 -10z m410 -10 c0 -5 -7 -10 -16 -10
-8 0 -12 5 -9 10 3 6 10 10 16 10 5 0 9 -4 9 -10z m520 -5 c0 -8 -4 -15 -10
-15 -5 0 -7 7 -4 15 4 8 8 15 10 15 2 0 4 -7 4 -15z m-260 -15 c0 -5 -7 -10
-15 -10 -8 0 -15 5 -15 10 0 6 7 10 15 10 8 0 15 -4 15 -10z m2640 -21 c0 -5
-4 -9 -10 -9 -5 0 -10 7 -10 16 0 8 5 12 10 9 6 -3 10 -10 10 -16z m895 11 c3
-5 -1 -10 -10 -10 -9 0 -13 5 -10 10 3 6 8 10 10 10 2 0 7 -4 10 -10z m125
-15 c0 -10 -10 -15 -32 -15 -30 0 -31 1 -12 15 25 19 44 19 44 0z m-4337 -2
c-7 -2 -21 -2 -30 0 -10 3 -4 5 12 5 17 0 24 -2 18 -5z m151 -12 c3 -5 -1 -14
-9 -21 -13 -10 -15 -9 -15 9 0 21 14 28 24 12z m526 4 c0 -17 -26 -55 -37 -55
-10 0 -12 -6 -8 -20 6 -18 3 -19 -24 -14 -20 4 -31 2 -31 -5 0 -6 -9 -11 -20
-11 -40 0 -10 49 33 52 28 2 37 22 15 32 -7 3 -1 3 15 0 20 -5 27 -2 27 10 0
9 7 16 15 16 8 0 15 -2 15 -5z m236 -20 c-3 -9 -11 -13 -16 -10 -8 5 -7 11 1
21 14 18 24 11 15 -11z m1270 -2 c-10 -10 -19 5 -10 18 6 11 8 11 12 0 2 -7 1
-15 -2 -18z m-1596 7 c0 -5 -4 -10 -10 -10 -5 0 -10 5 -10 10 0 6 5 10 10 10
6 0 10 -4 10 -10z m-210 -4 c0 -3 -4 -8 -10 -11 -5 -3 -10 -1 -10 4 0 6 5 11
10 11 6 0 10 -2 10 -4z m692 -18 c-6 -6 -15 -8 -19 -4 -4 4 -1 11 7 16 19 12
27 3 12 -12z m2217 18 c-2 -2 -15 -9 -29 -15 -24 -11 -24 -11 -6 3 16 13 49
24 35 12z m-3274 -16 c3 -5 1 -10 -4 -10 -6 0 -11 5 -11 10 0 6 2 10 4 10 3 0
8 -4 11 -10z m324 1 c17 -11 5 -32 -14 -24 -14 5 -19 -6 -16 -34 3 -18 -19
-16 -26 3 -7 20 13 64 29 64 7 0 19 -4 27 -9z m-139 -9 c0 -13 -12 -22 -22
-16 -10 6 -1 24 13 24 5 0 9 -4 9 -8z m290 -7 c0 -8 -5 -15 -10 -15 -6 0 -15
-10 -20 -22 l-9 -23 0 23 c-1 12 -7 22 -13 22 -17 1 22 30 39 30 7 0 13 -7 13
-15z m-485 -15 c3 -5 1 -10 -4 -10 -6 0 -11 5 -11 10 0 6 2 10 4 10 3 0 8 -4
11 -10z m260 0 c3 -5 -3 -10 -14 -10 -12 0 -21 5 -21 10 0 6 6 10 14 10 8 0
18 -4 21 -10z m4265 -20 c0 -11 -4 -20 -9 -20 -5 0 -11 9 -14 20 -3 13 0 20 9
20 8 0 14 -9 14 -20z m-4266 -18 c7 -12 -10 -35 -21 -29 -6 4 -8 -4 -5 -18 2
-15 0 -25 -7 -25 -12 0 -12 1 -16 38 -3 28 36 55 49 34z m3916 -2 c8 -5 12
-12 9 -15 -8 -8 -39 5 -39 16 0 11 11 11 30 -1z m-3500 -16 c0 -11 -5 -14 -16
-10 -9 3 -18 6 -20 6 -3 0 -2 5 1 10 10 16 35 12 35 -6z m-642 -25 c9 0 2 -5
-15 -10 -18 -5 -33 -14 -33 -21 0 -17 -27 9 -33 32 -6 23 -3 24 24 10 15 -9
21 -7 26 7 7 17 8 17 11 1 2 -10 11 -18 20 -19z m49 16 c-4 -8 -2 -17 4 -21 6
-4 6 -11 -2 -20 -10 -12 -14 -12 -20 -2 -15 23 -10 58 7 58 10 0 14 -6 11 -15z
m254 -9 c-13 -15 -45 -11 -36 5 3 4 12 6 20 2 8 -3 15 1 15 8 0 7 3 9 6 6 4
-4 1 -13 -5 -21z m779 9 c-7 -9 -15 -13 -17 -11 -7 7 7 26 19 26 6 0 6 -6 -2
-15z m3415 -5 c3 -5 1 -10 -4 -10 -6 0 -11 5 -11 10 0 6 2 10 4 10 3 0 8 -4
11 -10z m-4090 -18 c-11 -9 -19 -25 -17 -34 5 -25 -14 -23 -21 2 -6 23 16 50
41 50 15 -1 14 -3 -3 -18z m785 4 c0 -3 -4 -8 -10 -11 -5 -3 -10 -1 -10 4 0 6
5 11 10 11 6 0 10 -2 10 -4z m-682 -39 c4 -31 -3 -34 -25 -12 -17 17 -10 49
10 43 6 -3 13 -17 15 -31z m572 23 c0 -5 -2 -10 -4 -10 -2 0 -12 -3 -22 -7
-16 -6 -17 -5 -4 10 17 19 30 22 30 7z m-56 -25 c-4 -8 -8 -15 -10 -15 -2 0
-4 7 -4 15 0 8 4 15 10 15 5 0 7 -7 4 -15z m-1204 -9 c0 -8 -7 -16 -15 -20
-10 -4 -15 1 -15 14 0 11 7 20 15 20 8 0 15 -6 15 -14z m426 1 c9 3 14 -2 14
-16 0 -12 -4 -21 -9 -21 -5 0 -18 -3 -28 -6 -14 -5 -15 -4 -4 4 12 8 12 14 3
25 -7 7 -9 17 -5 21 4 4 9 3 11 -3 2 -5 10 -7 18 -4z m561 -9 c-3 -8 -6 -5 -6
6 -1 11 2 17 5 13 3 -3 4 -12 1 -19z m-890 -31 c6 2 14 -1 18 -6 10 -17 -31
-13 -45 4 -7 8 -16 15 -21 15 -5 0 -6 -7 -3 -15 7 -18 -7 -20 -24 -3 -9 9 -8
16 5 31 17 18 18 18 38 -5 12 -14 26 -23 32 -21z m1000 23 c-1 -12 -7 -18 -14
-16 -6 3 -14 -3 -16 -12 -3 -11 -5 -7 -6 9 -1 28 6 39 25 39 7 0 12 -9 11 -20z
m199 -5 c1 -16 -3 -24 -10 -22 -17 6 -46 -12 -46 -28 0 -8 -4 -15 -10 -15 -18
0 -11 21 18 55 33 41 47 43 48 10z m-1041 5 c3 -5 1 -10 -4 -10 -6 0 -11 5
-11 10 0 6 2 10 4 10 3 0 8 -4 11 -10z m269 -14 c-3 -9 -10 -16 -15 -16 -14 0
-11 28 4 33 16 6 19 3 11 -17z m-147 -18 c-3 -7 -5 -2 -5 12 0 14 2 19 5 13 2
-7 2 -19 0 -25z m831 0 c-3 -7 -13 -15 -24 -17 -16 -3 -17 -1 -5 13 16 19 34
21 29 4z m192 -2 c0 -3 -4 -8 -10 -11 -5 -3 -10 -1 -10 4 0 6 5 11 10 11 6 0
10 -2 10 -4z m-720 -10 c0 -22 -17 -36 -41 -36 -33 0 -36 7 -11 26 16 12 52
19 52 10z m-105 -16 c-3 -5 -11 -10 -16 -10 -6 0 -7 5 -4 10 3 6 11 10 16 10
6 0 7 -4 4 -10z m515 -6 c0 -9 -5 -14 -12 -12 -18 6 -21 28 -4 28 9 0 16 -7
16 -16z m336 4 c-17 -54 -16 -68 4 -68 11 0 20 -4 20 -10 0 -5 -4 -10 -9 -10
-5 0 -16 -3 -24 -6 -11 -4 -17 4 -22 25 -4 19 -13 31 -23 31 -12 1 -9 7 13 25
33 28 46 31 41 13z m2679 -55 c-20 -14 -35 -17 -35 -7 0 12 35 32 44 27 5 -4
1 -12 -9 -20z m152 -39 c-3 -3 -12 -4 -19 -1 -8 3 -5 6 6 6 11 1 17 -2 13 -5z
m-3677 -8 c0 -3 -4 -8 -10 -11 -5 -3 -10 -1 -10 4 0 6 5 11 10 11 6 0 10 -2
10 -4z m3449 -24 c5 -8 27 -12 57 -11 56 2 148 -6 214 -20 25 -5 97 -12 160
-15 63 -3 161 -11 218 -18 l102 -11 0 -43 0 -44 -42 5 c-24 3 -86 10 -138 15
-52 5 -132 14 -177 20 -45 6 -133 15 -195 21 -62 5 -149 14 -193 19 -44 5
-156 17 -249 26 -94 9 -181 21 -195 27 -25 10 -23 11 24 18 162 26 401 32 414
11z m-3581 -32 c7 -12 10 -26 6 -32 -4 -6 -6 -28 -6 -50 1 -21 -3 -38 -8 -38
-6 0 -10 11 -10 25 0 21 -5 25 -30 25 -16 0 -30 -5 -30 -11 0 -5 -4 -7 -10 -4
-5 3 6 22 25 41 19 19 34 38 34 42 -5 28 12 29 29 2z m968 12 c20 -7 20 -7 2
-26 -16 -17 -18 -18 -18 -3 0 10 -8 17 -21 17 -11 0 -17 5 -14 10 7 11 19 11
51 2z m-107 -44 c-13 -18 -25 -26 -27 -19 -4 13 25 51 40 51 5 0 -1 -14 -13
-32z m2341 7 c80 -8 201 -21 270 -29 120 -15 340 -39 650 -71 80 -8 160 -18
178 -21 l32 -5 0 -84 c0 -47 -3 -85 -6 -85 -3 0 -13 4 -22 9 -23 12 -161 21
-167 11 -8 -13 18 -27 67 -34 29 -4 49 -3 53 4 8 13 45 13 45 0 0 -5 7 -10 15
-10 11 0 15 -11 15 -36 l0 -37 -37 7 c-21 4 -60 9 -88 12 -27 3 -77 11 -110
19 -33 8 -94 17 -135 20 -63 5 -217 26 -490 64 -30 5 -113 16 -185 26 -119 16
-165 32 -165 56 0 14 95 3 122 -15 28 -18 88 -32 88 -21 0 15 -56 49 -76 47
-12 -2 -28 3 -36 12 -18 18 -82 36 -126 36 -45 0 -68 14 -80 48 l-10 29 42
-14 c31 -11 45 -12 59 -3 10 6 28 8 40 4 23 -7 44 -9 187 -19 83 -5 84 -5 46
9 -22 8 -42 13 -46 11 -3 -2 -35 3 -70 11 -36 9 -77 15 -91 15 -15 -1 -32 6
-39 14 -9 11 -17 12 -31 4 -17 -9 -86 -6 -148 7 -20 4 -22 7 -10 15 20 12 91
11 259 -6z m-3263 -11 c-3 -3 -12 -4 -19 -1 -8 3 -5 6 6 6 11 1 17 -2 13 -5z
m243 -24 c0 -5 -5 -10 -11 -10 -5 0 -7 5 -4 10 3 6 8 10 11 10 2 0 4 -4 4 -10z
m500 -40 c12 -8 12 -10 -5 -10 -11 0 -27 5 -35 10 -12 8 -12 10 5 10 11 0 27
-5 35 -10z m172 -5 c1 -10 -58 -44 -77 -44 -5 0 6 13 25 29 35 29 51 34 52 15z
m458 -71 c0 -8 -5 -12 -10 -9 -6 4 -8 11 -5 16 9 14 15 11 15 -7z m-550 -8 c0
-3 -4 -8 -10 -11 -5 -3 -10 -1 -10 4 0 6 5 11 10 11 6 0 10 -2 10 -4z m-130
-16 c0 -5 -4 -10 -10 -10 -5 0 -10 5 -10 10 0 6 5 10 10 10 6 0 10 -4 10 -10z
m660 -130 c0 -5 -2 -10 -4 -10 -3 0 -8 5 -11 10 -3 6 -1 10 4 10 6 0 11 -4 11
-10z m1444 -316 c33 -13 14 -23 -39 -21 -54 2 -72 11 -37 20 27 7 59 8 76 1z
m-144 -14 c0 -5 -10 -10 -22 -9 -22 0 -22 1 -3 9 11 5 21 9 23 9 1 1 2 -3 2
-9z m896 -52 c19 -21 19 -21 -6 -15 -14 4 -31 7 -37 7 -7 0 -13 7 -13 15 0 22
34 18 56 -7z m-311 -8 c21 -8 25 -13 16 -24 -17 -20 56 -40 119 -33 29 4 50 2
50 -3 0 -6 -13 -10 -30 -10 -16 0 -30 -4 -30 -9 0 -16 38 -23 80 -16 26 4 40
3 40 -4 0 -6 -6 -11 -12 -12 -7 0 -44 -2 -83 -4 -81 -5 -113 1 -96 18 6 6 11
14 11 19 0 10 -78 30 -89 24 -5 -3 -25 1 -45 9 -34 14 -45 33 -29 48 10 10 68
8 98 -3z m175 -10 c0 -5 -4 -10 -10 -10 -5 0 -10 5 -10 10 0 6 5 10 10 10 6 0
10 -4 10 -10z m-625 -10 c4 -6 -5 -10 -20 -10 -15 0 -24 4 -20 10 3 6 12 10
20 10 8 0 17 -4 20 -10z m265 0 c11 -7 7 -10 -17 -10 -18 0 -33 5 -33 10 0 13
30 13 50 0z m-217 -7 c-7 -2 -19 -2 -25 0 -7 3 -2 5 12 5 14 0 19 -2 13 -5z
m634 -29 c-3 -3 -12 -4 -19 -1 -8 3 -5 6 6 6 11 1 17 -2 13 -5z m72 -3 c16
-10 6 -31 -15 -31 -8 0 -14 2 -14 4 0 2 -3 11 -6 20 -7 18 12 21 35 7z m-659
-11 c0 -15 -46 -34 -65 -26 -14 5 -15 9 -5 21 14 17 70 21 70 5z m263 -19 c16
-6 17 -9 4 -19 -11 -10 -17 -9 -26 2 -6 8 -21 12 -31 9 -11 -3 -20 0 -20 6 0
12 45 14 73 2z m-523 -21 c0 -5 -7 -10 -15 -10 -8 0 -15 5 -15 10 0 6 7 10 15
10 8 0 15 -4 15 -10z m575 0 c3 -5 -1 -10 -10 -10 -9 0 -13 5 -10 10 3 6 8 10
10 10 2 0 7 -4 10 -10z m-680 -10 c-3 -5 -10 -10 -16 -10 -5 0 -9 5 -9 10 0 6
7 10 16 10 8 0 12 -4 9 -10z m1220 -24 c39 -1 50 -5 53 -19 3 -14 -1 -17 -21
-12 -14 4 -28 2 -31 -4 -9 -14 -42 -14 -65 1 -15 9 -26 9 -47 0 -30 -14 -29
-15 -38 15 -6 18 -2 22 21 26 15 2 39 2 53 -1 14 -3 47 -5 75 -6z m170 -12
c97 -54 107 -57 145 -45 21 6 56 11 79 11 45 0 131 -20 131 -31 0 -3 20 -5 45
-3 62 6 85 -8 85 -50 0 -29 -4 -34 -31 -40 -40 -8 -79 2 -79 21 0 10 -10 13
-37 11 -29 -2 -38 -7 -37 -20 2 -21 -1 -22 -27 -7 -11 5 -52 12 -91 14 -67 4
-100 16 -85 31 4 4 26 2 48 -5 45 -14 59 -6 59 32 0 15 -10 17 -76 17 -41 0
-85 5 -97 11 -20 9 -21 9 -4 -5 18 -14 18 -14 0 -19 -37 -10 -156 -7 -168 3
-10 8 -19 8 -34 1 -26 -15 -31 -14 -31 5 0 11 6 14 20 9 14 -5 20 -2 20 9 0
10 9 16 24 16 36 0 55 10 50 25 -5 13 12 21 46 24 8 0 29 -6 45 -15z m-459
-15 c11 -19 -31 -64 -57 -61 -13 1 -43 4 -67 7 -23 2 -47 7 -52 10 -20 13 -9
25 23 25 17 0 43 7 57 14 31 17 86 20 96 5z m145 -35 c12 -13 30 -24 40 -24
10 0 20 -4 23 -9 3 -4 -44 -8 -104 -9 -118 0 -126 4 -95 51 20 31 103 26 136
-9z m-1056 -5 c-8 -24 7 -38 40 -39 11 -1 34 -7 50 -14 29 -13 27 -14 -26 -9
-41 4 -66 1 -89 -11 -42 -20 -40 -21 -40 13 0 51 17 81 45 81 22 0 25 -3 20
-21z m1125 11 c0 -5 -4 -10 -10 -10 -5 0 -10 5 -10 10 0 6 5 10 10 10 6 0 10
-4 10 -10z m-950 -95 c0 -8 -6 -15 -14 -15 -17 0 -28 14 -19 24 12 12 33 6 33
-9z m-853 -181 c-3 -3 -12 -4 -19 -1 -8 3 -5 6 6 6 11 1 17 -2 13 -5z m627 -5
c-3 -6 -1 -15 6 -19 7 -4 9 -13 6 -19 -13 -21 -26 -11 -26 19 0 17 5 30 11 30
5 0 7 -5 3 -11z m135 -35 c8 -7 -3 -11 -46 -18 -28 -4 -43 -2 -43 4 0 22 68
33 89 14z m-189 -264 c0 -8 6 -24 14 -35 7 -11 17 -31 21 -43 4 -13 16 -33 26
-43 10 -10 19 -28 19 -39 0 -11 6 -20 14 -20 7 0 26 -16 40 -35 26 -33 26 -35
7 -35 -17 0 -21 -6 -21 -30 0 -37 -3 -37 -47 -2 -81 65 -81 64 -88 148 -3 43
-11 94 -16 111 -6 18 -7 43 -3 55 6 21 7 21 20 3 8 -10 14 -26 14 -35z m85 31
c11 -5 20 -14 20 -22 0 -10 16 -14 63 -15 76 0 83 -8 80 -83 l-3 -53 -54 -2
-53 -1 -39 64 c-24 40 -37 72 -33 83 3 10 1 18 -5 18 -6 0 -11 5 -11 10 0 12
7 12 35 1z m313 -85 c15 -8 46 -18 67 -21 57 -11 95 -32 95 -55 0 -28 -48 -56
-110 -64 -30 -4 -60 -12 -66 -17 -7 -6 -21 -6 -38 1 -14 5 -41 7 -59 4 -39 -6
-107 -5 -119 2 -4 3 -8 12 -8 21 0 13 10 15 60 11 l60 -4 1 43 c2 47 2 50 13
76 10 21 65 23 104 3z m236 -66 c32 -12 34 -30 3 -30 -13 0 -28 -5 -35 -12
-18 -18 -27 -1 -14 27 13 29 12 28 46 15z m-704 -169 c0 -14 -5 -18 -20 -14
-25 7 -26 20 -2 26 9 3 18 5 20 6 1 0 2 -8 2 -18z m-44 -47 c9 -14 22 -23 28
-21 6 3 19 -6 29 -19 18 -24 18 -24 -8 -24 -14 0 -26 -6 -26 -12 -1 -7 -3 -20
-4 -28 -1 -8 -3 -21 -4 -27 -2 -18 -28 -16 -35 3 -3 8 -3 26 0 40 6 22 3 24
-25 24 -35 0 -39 12 -15 58 19 39 38 41 60 6z m936 -70 c9 -3 25 -26 34 -51
26 -68 15 -78 -82 -78 -86 1 -326 13 -330 17 -1 2 -5 20 -9 40 -7 35 -5 38 21
49 17 6 52 8 82 5 39 -5 61 -2 80 9 15 8 52 19 82 23 50 7 69 5 122 -14z m218
3 c8 0 41 2 73 6 52 7 58 5 55 -10 -2 -10 -14 -23 -28 -29 -32 -16 -167 -56
-200 -60 -13 -1 -26 -8 -28 -13 -7 -21 -21 -10 -27 22 -4 17 -12 37 -17 44 -6
7 -6 19 1 32 11 21 8 20 171 8z m-1201 -51 c16 -19 -3 -58 -24 -50 -8 4 -15 1
-15 -5 0 -18 64 -41 114 -41 46 0 70 -15 39 -24 -10 -3 -48 -10 -85 -17 -38
-6 -68 -15 -68 -20 0 -15 -27 -10 -41 8 -13 15 -11 16 10 10 l23 -6 -20 22
c-10 12 -28 35 -38 51 l-18 29 38 -6 c37 -6 38 -6 21 13 -15 16 -15 22 -5 35
16 19 54 19 69 1z"/>
<path d="M563 5072 c-13 -2 -23 -8 -23 -13 0 -11 17 -11 44 0 24 9 9 18 -21
13z"/>
<path d="M650 4828 c0 -9 5 -20 10 -23 13 -8 13 5 0 25 -8 13 -10 13 -10 -2z"/>
<path d="M2305 4480 c3 -5 8 -10 11 -10 2 0 4 5 4 10 0 6 -5 10 -11 10 -5 0
-7 -4 -4 -10z"/>
<path d="M3255 4180 c-3 -5 -1 -10 4 -10 6 0 11 5 11 10 0 6 -2 10 -4 10 -3 0
-8 -4 -11 -10z"/>
<path d="M1650 3639 c0 -5 5 -7 10 -4 6 3 10 8 10 11 0 2 -4 4 -10 4 -5 0 -10
-5 -10 -11z"/>
<path d="M2723 3098 c-13 -6 -23 -15 -23 -20 0 -10 36 7 45 22 7 12 7 12 -22
-2z"/>
<path d="M2785 3020 c-3 -5 -1 -10 4 -10 6 0 11 5 11 10 0 6 -2 10 -4 10 -3 0
-8 -4 -11 -10z"/>
<path d="M4508 2203 c6 -2 18 -2 25 0 6 3 1 5 -13 5 -14 0 -19 -2 -12 -5z"/>
<path d="M4578 2193 c6 -2 18 -2 25 0 6 3 1 5 -13 5 -14 0 -19 -2 -12 -5z"/>
<path d="M4645 2176 c17 -7 34 -11 40 -8 5 4 -1 9 -15 13 -42 12 -57 9 -25 -5z"/>
<path d="M4746 2161 c5 -5 26 -12 46 -15 31 -6 37 -4 32 9 -4 10 -19 15 -47
15 -24 0 -37 -4 -31 -9z"/>
<path d="M4930 2090 c0 -5 5 -10 10 -10 6 0 10 5 10 10 0 6 -4 10 -10 10 -5 0
-10 -4 -10 -10z"/>
<path d="M1089 5840 c0 -8 -3 -44 -5 -80 -6 -90 0 -110 34 -110 21 0 27 5 28
23 0 12 2 49 3 82 4 87 4 87 -20 80 -14 -5 -25 -2 -30 6 -7 12 -9 11 -10 -1z"/>
<path d="M1040 5655 c0 -9 6 -12 15 -9 8 4 15 7 15 9 0 2 -7 5 -15 9 -9 3 -15
0 -15 -9z"/>
<path d="M842 5628 c6 -18 28 -21 28 -4 0 9 -7 16 -16 16 -9 0 -14 -5 -12 -12z"/>
<path d="M3900 5610 c0 -5 -7 -10 -17 -10 -36 0 -3 -11 48 -16 47 -4 52 -3 39
9 -19 19 -70 31 -70 17z"/>
<path d="M856 5544 c-4 -10 -1 -14 6 -12 15 5 23 28 10 28 -5 0 -13 -7 -16
-16z"/>
<path d="M1050 5540 c-8 -5 -10 -10 -5 -10 6 0 17 5 25 10 8 5 11 10 5 10 -5
0 -17 -5 -25 -10z"/>
<path d="M1162 5108 c-7 -7 -12 -18 -12 -25 0 -7 -7 -13 -15 -13 -24 0 -17
-17 10 -24 15 -4 25 -14 25 -25 0 -25 -9 -32 -30 -19 -23 15 -78 2 -61 -15 6
-6 27 -11 47 -11 39 0 69 28 78 74 2 14 3 6 2 -17 -1 -23 2 -39 6 -37 20 13
-4 124 -27 124 -6 0 -16 -5 -23 -12z"/>
<path d="M5066 4781 c-4 -7 -5 -15 -2 -18 9 -9 19 4 14 18 -4 11 -6 11 -12 0z"/>
<path d="M5067 4742 c-4 -6 -15 -8 -24 -5 -11 4 -14 2 -11 -8 3 -8 -1 -29 -8
-47 -17 -41 -2 -70 33 -68 21 1 23 6 23 49 0 26 -4 47 -10 47 -5 0 -10 -5 -10
-12 0 -6 -3 -8 -7 -4 -5 4 0 14 11 21 10 8 16 19 14 26 -3 10 -6 10 -11 1z"/>
<path d="M4987 4680 c-18 -22 -23 -50 -8 -50 9 0 34 60 28 66 -2 2 -11 -6 -20
-16z"/>
<path d="M1271 4654 c0 -11 3 -14 6 -6 3 7 2 16 -1 19 -3 4 -6 -2 -5 -13z"/>
<path d="M4928 4633 c7 -3 16 -2 19 1 4 3 -2 6 -13 5 -11 0 -14 -3 -6 -6z"/>
<path d="M4965 4611 c-3 -5 -1 -12 5 -16 5 -3 10 1 10 9 0 18 -6 21 -15 7z"/>
<path d="M4934 4601 c4 -6 2 -9 -6 -6 -7 3 -23 -3 -36 -13 -22 -17 -22 -18 -5
-38 10 -12 29 -21 42 -20 13 1 26 -5 28 -11 6 -18 -26 -28 -46 -16 -13 8 -23
6 -42 -8 l-24 -19 23 0 c24 0 30 -15 10 -23 -10 -4 -9 -8 2 -17 12 -9 10 -11
-12 -7 -17 2 -29 -1 -32 -10 -3 -8 -11 -11 -17 -7 -9 5 -10 -2 -5 -27 9 -49
19 -53 54 -25 16 14 32 26 34 26 3 0 4 -24 4 -52 -1 -44 -4 -53 -18 -50 -9 1
-19 -2 -23 -8 -10 -16 -38 -12 -31 5 6 17 -29 39 -50 31 -22 -8 -16 -28 7 -24
28 4 34 -28 9 -42 -11 -6 -17 -17 -14 -25 4 -8 2 -15 -4 -15 -5 0 -14 -18 -20
-40 -8 -35 -8 -40 7 -40 10 -1 6 -6 -11 -16 -33 -17 -39 -49 -8 -41 16 4 18 2
10 -13 -6 -10 -10 -27 -10 -38 0 -26 -65 -57 -90 -42 -9 6 -7 11 10 20 l22 12
-31 19 c-22 13 -37 16 -48 11 -11 -6 -12 -11 -4 -16 6 -4 11 -2 11 3 0 6 4 11
9 11 6 0 9 -9 8 -20 -1 -22 -27 -36 -37 -20 -10 17 -56 -12 -52 -32 4 -21 13
-23 30 -6 9 9 12 9 12 0 0 -7 5 -12 10 -12 6 0 10 7 10 15 0 8 5 15 10 15 6 0
10 -5 10 -10 0 -6 12 -15 27 -21 18 -7 23 -13 16 -20 -13 -13 -49 -7 -46 8 2
8 -7 9 -30 2 -17 -5 -33 -9 -34 -9 -2 0 -3 -6 -3 -14 0 -8 -7 -17 -16 -20 -21
-8 -45 22 -38 47 4 12 0 17 -14 17 -15 0 -19 -5 -15 -19 3 -11 -2 -21 -11 -24
-10 -4 -13 -1 -9 9 3 7 2 14 -2 14 -11 0 -55 -49 -55 -61 0 -5 -4 -9 -10 -9
-5 0 -10 5 -10 10 0 15 -12 12 -40 -11 l-25 -20 39 6 c49 8 134 14 261 18 269
10 376 19 371 34 -8 20 2 33 18 27 8 -3 12 -14 8 -26 -4 -17 -2 -20 12 -15 10
4 26 7 37 7 17 0 19 8 19 79 0 67 -3 80 -17 84 -17 4 -17 5 0 6 20 1 25 56 5
64 -10 4 -10 8 -2 14 14 9 16 113 3 113 -5 0 -9 7 -9 15 0 8 5 15 10 15 6 0
10 9 10 20 0 22 -28 27 -61 10 -13 -7 -19 -7 -19 0 0 5 4 10 10 10 5 0 17 11
25 24 13 19 14 29 5 45 -11 21 3 31 15 11 15 -25 25 -5 25 51 0 49 -3 60 -14
56 -13 -5 -48 7 -96 32 -8 5 -15 21 -15 36 0 16 -6 30 -14 33 -8 3 -11 0 -7
-7z m-4 -51 c0 -5 -4 -10 -10 -10 -5 0 -10 5 -10 10 0 6 5 10 10 10 6 0 10 -4
10 -10z m-70 -180 c0 -13 -11 -13 -30 0 -12 8 -11 10 8 10 12 0 22 -4 22 -10z
m180 -224 c0 -3 -4 -8 -10 -11 -5 -3 -10 -1 -10 4 0 6 5 11 10 11 6 0 10 -2
10 -4z m-225 -66 c3 -5 1 -10 -4 -10 -6 0 -11 5 -11 10 0 6 2 10 4 10 3 0 8
-4 11 -10z m135 -74 c0 -7 -9 -16 -21 -19 -12 -3 -18 -10 -15 -15 3 -6 -2 -8
-14 -5 -27 7 -25 26 3 39 31 16 47 16 47 0z m-117 -22 c6 -6 -16 -34 -26 -34
-3 0 -3 9 0 20 5 20 15 25 26 14z m-363 -104 c0 -5 -7 -7 -15 -4 -8 4 -15 8
-15 10 0 2 7 4 15 4 8 0 15 -4 15 -10z"/>
<path d="M4810 4535 c-10 -12 -10 -15 3 -15 8 0 17 7 21 15 3 8 2 15 -3 15 -5
0 -14 -7 -21 -15z"/>
<path d="M1335 4510 c3 -5 8 -10 11 -10 2 0 4 5 4 10 0 6 -5 10 -11 10 -5 0
-7 -4 -4 -10z"/>
<path d="M4660 4399 c0 -5 5 -7 10 -4 6 3 10 8 10 11 0 2 -4 4 -10 4 -5 0 -10
-5 -10 -11z"/>
<path d="M4660 4360 c0 -5 5 -10 10 -10 6 0 10 5 10 10 0 6 -4 10 -10 10 -5 0
-10 -4 -10 -10z"/>
<path d="M4697 4364 c-4 -4 -7 -14 -7 -23 0 -11 3 -12 11 -4 6 6 10 16 7 23
-2 6 -7 8 -11 4z"/>
<path d="M900 4350 c0 -5 5 -10 10 -10 6 0 10 5 10 10 0 6 -4 10 -10 10 -5 0
-10 -4 -10 -10z"/>
<path d="M4744 4333 c-13 -14 -22 -28 -20 -31 5 -4 56 46 56 54 0 10 -13 1
-36 -23z"/>
<path d="M5060 4345 c0 -8 5 -15 10 -15 6 0 10 7 10 15 0 8 -4 15 -10 15 -5 0
-10 -7 -10 -15z"/>
<path d="M4785 4340 c-3 -5 -1 -10 4 -10 6 0 11 5 11 10 0 6 -2 10 -4 10 -3 0
-8 -4 -11 -10z"/>
<path d="M4530 4314 c0 -8 5 -12 10 -9 6 3 10 10 10 16 0 5 -4 9 -10 9 -5 0
-10 -7 -10 -16z"/>
<path d="M4626 4307 c3 -10 9 -15 12 -12 3 3 0 11 -7 18 -10 9 -11 8 -5 -6z"/>
<path d="M4490 4282 c-8 -9 -14 -21 -12 -25 1 -5 -3 -15 -9 -23 -19 -24 6 -16
29 9 21 22 30 57 15 57 -5 -1 -15 -8 -23 -18z"/>
<path d="M4664 4282 c-6 -4 -13 -15 -17 -25 -5 -14 -3 -16 12 -8 16 9 19 5 24
-31 5 -38 30 -78 42 -67 2 3 5 29 6 59 2 41 -2 56 -16 66 -21 16 -35 17 -51 6z"/>
<path d="M4545 4270 c-3 -5 1 -10 9 -10 9 0 16 5 16 10 0 6 -4 10 -9 10 -6 0
-13 -4 -16 -10z"/>
<path d="M3506 4253 c-6 -14 -5 -15 5 -6 7 7 10 15 7 18 -3 3 -9 -2 -12 -12z"/>
<path d="M4569 4238 c-14 -19 -16 -27 -7 -20 10 8 26 10 42 6 30 -7 34 6 10
30 -20 21 -19 21 -45 -16z"/>
<path d="M4576 4193 c-8 -25 -6 -38 5 -35 5 1 9 -5 9 -13 0 -19 -34 -20 -49
-1 -6 7 -8 21 -5 31 5 12 3 16 -5 14 -7 -3 -11 -7 -10 -9 1 -3 -3 -16 -11 -29
-10 -21 -10 -26 2 -35 24 -18 28 -63 7 -82 -23 -21 -25 -49 -3 -40 9 3 21 6
28 6 7 0 21 7 32 15 18 13 18 14 -5 8 -21 -5 -23 -3 -18 16 3 12 2 34 -2 49
-8 26 -7 27 28 27 20 0 39 -4 43 -10 4 -5 8 9 8 31 0 35 -4 43 -22 48 -19 5
-21 8 -8 16 13 8 13 10 -2 10 -9 0 -19 -8 -22 -17z"/>
<path d="M3490 4185 c0 -8 5 -15 10 -15 6 0 10 7 10 15 0 8 -4 15 -10 15 -5 0
-10 -7 -10 -15z"/>
<path d="M4467 4179 c-3 -13 -1 -19 6 -16 15 5 22 37 9 37 -5 0 -12 -9 -15
-21z"/>
<path d="M1380 4180 c0 -5 5 -10 11 -10 5 0 7 5 4 10 -3 6 -8 10 -11 10 -2 0
-4 -4 -4 -10z"/>
<path d="M4085 4180 c3 -5 13 -10 21 -10 8 0 12 5 9 10 -3 6 -13 10 -21 10 -8
0 -12 -4 -9 -10z"/>
<path d="M4296 4165 c-3 -9 -24 -15 -62 -17 -37 -2 -59 -8 -62 -16 -3 -11 12
-12 79 -7 46 4 91 11 99 16 13 7 13 8 -2 9 -9 0 -23 7 -31 15 -13 12 -16 12
-21 0z"/>
<path d="M1417 4154 c-3 -3 -3 -12 -1 -19 3 -7 -2 -15 -11 -17 -14 -3 -14 -5
-1 -23 18 -25 28 -16 33 30 3 32 -5 44 -20 29z"/>
<path d="M3990 4139 c0 -10 6 -20 13 -22 9 -4 8 -8 -3 -16 -12 -9 -9 -11 13
-11 20 0 30 6 34 20 6 24 23 16 23 -11 0 -12 -7 -19 -19 -19 -10 0 -24 -7 -31
-15 -8 -10 -17 -12 -24 -6 -21 17 -56 7 -70 -20 -12 -24 -12 -26 4 -22 10 3
21 0 24 -6 4 -6 12 -11 17 -11 6 0 8 4 5 8 -3 5 8 9 25 10 21 0 29 -3 26 -12
-3 -7 -1 -19 4 -27 7 -10 9 -6 7 16 -3 34 30 75 59 75 14 0 14 2 -2 20 -16 18
-16 20 -1 26 9 3 25 4 36 1 22 -6 25 0 11 21 -6 9 -33 15 -80 16 -61 2 -71 0
-71 -15z"/>
<path d="M4685 4120 c4 -6 11 -8 16 -5 14 9 11 15 -7 15 -8 0 -12 -5 -9 -10z"/>
<path d="M4398 4113 c-10 -2 -18 -9 -18 -14 0 -6 9 -7 21 -4 14 5 25 2 31 -6
7 -11 8 -9 6 5 -3 21 -14 26 -40 19z"/>
<path d="M3447 4093 c-4 -3 -7 -11 -7 -17 0 -6 5 -5 12 2 6 6 9 14 7 17 -3 3
-9 2 -12 -2z"/>
<path d="M1120 4080 c0 -5 7 -10 16 -10 8 0 12 5 9 10 -3 6 -10 10 -16 10 -5
0 -9 -4 -9 -10z"/>
<path d="M1077 4055 c23 -20 26 -26 13 -34 -17 -11 -13 -18 14 -23 24 -4 31
15 13 33 -7 8 -16 22 -20 32 -3 9 -16 17 -27 17 -19 0 -19 -2 7 -25z"/>
<path d="M3895 4070 c3 -5 8 -10 11 -10 2 0 4 5 4 10 0 6 -5 10 -11 10 -5 0
-7 -4 -4 -10z"/>
<path d="M4401 4066 c-7 -8 -10 -19 -7 -24 3 -6 -1 -15 -9 -22 -8 -7 -15 -17
-15 -23 0 -5 9 -2 20 8 11 10 20 24 20 31 0 7 6 14 13 17 9 3 9 8 1 16 -8 9
-14 8 -23 -3z"/>
<path d="M1385 4040 c-3 -5 -1 -10 4 -10 6 0 11 -5 11 -11 0 -6 -7 -9 -15 -5
-8 3 -15 1 -15 -4 0 -15 20 -22 33 -12 7 6 25 12 40 14 37 4 34 24 -4 20 -16
-1 -29 2 -29 8 0 13 -17 13 -25 0z"/>
<path d="M4705 4020 c-3 -5 -1 -10 4 -10 6 0 11 5 11 10 0 6 -2 10 -4 10 -3 0
-8 -4 -11 -10z"/>
<path d="M4430 3994 c0 -14 3 -14 15 -4 8 7 15 14 15 16 0 2 -7 4 -15 4 -8 0
-15 -7 -15 -16z"/>
<path d="M3460 3979 c0 -5 5 -7 10 -4 6 3 10 8 10 11 0 2 -4 4 -10 4 -5 0 -10
-5 -10 -11z"/>
<path d="M996 3964 c-8 -22 -8 -23 9 -20 23 3 27 12 11 25 -11 9 -15 8 -20 -5z"/>
<path d="M4302 3968 c-17 -17 -15 -28 5 -28 15 0 14 -2 -3 -14 -10 -8 -15 -18
-11 -22 4 -5 12 -2 17 5 4 8 15 11 25 7 13 -5 16 -2 11 10 -3 8 -6 24 -6 35 0
21 -20 25 -38 7z"/>
<path d="M1040 3960 c0 -5 7 -10 16 -10 8 0 12 5 9 10 -3 6 -10 10 -16 10 -5
0 -9 -4 -9 -10z"/>
<path d="M4365 3940 c3 -5 8 -10 11 -10 2 0 4 5 4 10 0 6 -5 10 -11 10 -5 0
-7 -4 -4 -10z"/>
<path d="M887 3913 c-12 -11 -8 -22 14 -33 19 -11 20 -10 8 12 -15 30 -15 29
-22 21z"/>
<path d="M4217 3913 c-12 -11 -8 -23 8 -23 8 0 15 7 15 15 0 16 -12 20 -23 8z"/>
<path d="M4375 3910 c-3 -5 1 -10 9 -10 9 0 16 5 16 10 0 6 -4 10 -9 10 -6 0
-13 -4 -16 -10z"/>
<path d="M936 3873 c-14 -14 -26 -30 -26 -34 0 -5 -7 -9 -16 -9 -27 0 -9 -25
19 -27 21 -1 27 3 27 18 0 24 27 54 49 54 25 0 23 20 -3 23 -14 1 -34 -9 -50
-25z"/>
<path d="M4171 3871 c-14 -24 -14 -31 -1 -31 14 0 32 38 21 45 -6 3 -15 -3
-20 -14z"/>
<path d="M721 3766 c-14 -17 -7 -36 14 -36 21 0 26 15 12 34 -12 16 -14 16
-26 2z"/>
<path d="M4660 3760 c-16 -5 11 -8 75 -8 81 0 92 2 55 9 -56 10 -98 9 -130 -1z"/>
<path d="M4636 3710 c17 -17 170 -18 159 0 -3 6 -43 10 -88 10 -51 0 -78 -3
-71 -10z"/>
<path d="M4815 3700 c-3 -5 1 -10 9 -10 9 0 16 5 16 10 0 6 -4 10 -9 10 -6 0
-13 -4 -16 -10z"/>
<path d="M5028 3703 c7 -3 16 -2 19 1 4 3 -2 6 -13 5 -11 0 -14 -3 -6 -6z"/>
<path d="M4640 3660 c0 -13 40 -13 60 0 11 7 5 10 -22 10 -21 0 -38 -4 -38
-10z"/>
<path d="M680 3656 c0 -2 7 -9 15 -16 12 -10 15 -10 15 4 0 9 -7 16 -15 16 -8
0 -15 -2 -15 -4z"/>
<path d="M965 3641 c-3 -5 -1 -12 5 -16 5 -3 10 1 10 9 0 18 -6 21 -15 7z"/>
<path d="M4583 3632 c-46 -1 -83 -6 -83 -11 0 -7 96 -10 445 -13 88 -1 102 -4
117 -22 17 -21 17 -21 18 10 0 25 -5 33 -23 38 -13 3 -34 3 -48 0 -24 -6 -297
-7 -328 -2 -9 2 -53 2 -98 0z"/>
<path d="M4395 3620 c-9 -15 21 -23 52 -15 21 5 24 8 12 16 -19 12 -56 11 -64
-1z"/>
<path d="M720 3605 c0 -8 2 -15 4 -15 2 0 11 -3 20 -6 12 -4 16 0 16 15 0 14
-6 21 -20 21 -11 0 -20 -7 -20 -15z"/>
<path d="M4928 3573 c7 -3 16 -2 19 1 4 3 -2 6 -13 5 -11 0 -14 -3 -6 -6z"/>
<path d="M3450 3560 c-13 -8 -12 -10 3 -10 9 0 17 5 17 10 0 12 -1 12 -20 0z"/>
<path d="M4978 3563 c12 -2 30 -2 40 0 9 3 -1 5 -23 4 -22 0 -30 -2 -17 -4z"/>
<path d="M545 3550 c3 -5 10 -10 16 -10 5 0 9 5 9 10 0 6 -7 10 -16 10 -8 0
-12 -4 -9 -10z"/>
<path d="M3360 3550 c0 -5 7 -7 15 -4 8 4 15 8 15 10 0 2 -7 4 -15 4 -8 0 -15
-4 -15 -10z"/>
<path d="M5072 3535 c0 -16 2 -22 5 -12 2 9 2 23 0 30 -3 6 -5 -1 -5 -18z"/>
<path d="M646 3515 c-3 -8 -1 -15 3 -15 5 0 11 7 15 15 3 8 1 15 -3 15 -5 0
-11 -7 -15 -15z"/>
<path d="M681 3504 c-13 -13 -27 -22 -31 -19 -5 3 -11 1 -15 -5 -3 -5 1 -10
10 -10 11 0 15 -5 11 -15 -3 -9 0 -15 9 -15 7 0 15 -8 18 -17 4 -17 4 -17 12
0 5 12 2 22 -11 31 -15 12 -16 16 -5 30 17 21 45 21 37 1 -3 -8 -1 -15 4 -15
14 0 12 36 -3 48 -9 8 -19 4 -36 -14z"/>
<path d="M745 3500 c3 -5 11 -10 16 -10 6 0 7 5 4 10 -3 6 -11 10 -16 10 -6 0
-7 -4 -4 -10z"/>
<path d="M5072 3465 c0 -16 2 -22 5 -12 2 9 2 23 0 30 -3 6 -5 -1 -5 -18z"/>
<path d="M430 3395 c0 -9 6 -12 15 -9 8 4 12 10 9 15 -8 14 -24 10 -24 -6z"/>
<path d="M565 3400 c3 -5 13 -10 21 -10 8 0 14 5 14 10 0 6 -9 10 -21 10 -11
0 -17 -4 -14 -10z"/>
<path d="M485 3390 c-3 -5 1 -10 10 -10 9 0 13 5 10 10 -3 6 -8 10 -10 10 -2
0 -7 -4 -10 -10z"/>
<path d="M478 3333 c7 -3 16 -2 19 1 4 3 -2 6 -13 5 -11 0 -14 -3 -6 -6z"/>
<path d="M560 3329 c0 -5 5 -7 10 -4 6 3 10 8 10 11 0 2 -4 4 -10 4 -5 0 -10
-5 -10 -11z"/>
<path d="M463 3267 l-22 -22 24 0 c19 0 25 5 25 23 0 26 1 26 -27 -1z"/>
<path d="M536 3271 c-3 -4 6 -13 19 -19 13 -6 27 -8 29 -3 3 4 -6 13 -19 19
-13 6 -27 8 -29 3z"/>
<path d="M373 3246 c-16 -19 8 -29 39 -17 l22 8 -21 12 c-26 13 -25 14 -40 -3z"/>
<path d="M606 3234 c-5 -14 -4 -15 9 -4 17 14 19 20 6 20 -5 0 -12 -7 -15 -16z"/>
<path d="M497 3233 c-12 -11 -8 -23 7 -23 7 0 19 7 26 15 10 12 9 15 -7 15
-11 0 -23 -3 -26 -7z"/>
<path d="M325 3210 c3 -5 11 -10 16 -10 6 0 7 5 4 10 -3 6 -11 10 -16 10 -6 0
-7 -4 -4 -10z"/>
<path d="M568 3190 c-4 -13 -34 -16 -68 -7 -14 4 -19 4 -12 1 6 -3 12 -13 12
-21 0 -10 6 -14 19 -10 12 3 22 -1 25 -9 3 -8 11 -14 17 -14 8 0 8 4 -1 15
-10 13 -9 15 9 15 14 0 21 6 21 20 0 21 -16 28 -22 10z"/>
<path d="M176 3163 c-6 -14 -5 -15 5 -6 7 7 10 15 7 18 -3 3 -9 -2 -12 -12z"/>
<path d="M420 3160 c0 -6 7 -10 15 -10 8 0 15 2 15 4 0 2 -7 6 -15 10 -8 3
-15 1 -15 -4z"/>
<path d="M455 3130 c-3 -5 1 -10 9 -10 9 0 16 5 16 10 0 6 -4 10 -9 10 -6 0
-13 -4 -16 -10z"/>
<path d="M150 3046 c0 -2 7 -9 15 -16 12 -10 15 -10 15 4 0 9 -7 16 -15 16 -8
0 -15 -2 -15 -4z"/>
<path d="M272 3038 c6 -18 28 -21 28 -4 0 9 -7 16 -16 16 -9 0 -14 -5 -12 -12z"/>
<path d="M150 2870 c0 -5 5 -10 10 -10 6 0 10 5 10 10 0 6 -4 10 -10 10 -5 0
-10 -4 -10 -10z"/>
<path d="M175 2850 c-3 -6 1 -7 9 -4 18 7 21 14 7 14 -6 0 -13 -4 -16 -10z"/>
<path d="M270 2821 c0 -13 27 -21 46 -14 13 5 13 7 2 14 -17 11 -48 11 -48 0z"/>
<path d="M140 2699 c0 -5 5 -7 10 -4 6 3 10 8 10 11 0 2 -4 4 -10 4 -5 0 -10
-5 -10 -11z"/>
<path d="M33 2553 c-7 -24 -8 -42 -2 -47 5 -6 9 -2 9 11 0 12 6 23 12 25 9 3
10 11 3 26 -9 21 -11 20 -22 -15z"/>
<path d="M80 2580 c0 -5 5 -10 10 -10 6 0 10 5 10 10 0 6 -4 10 -10 10 -5 0
-10 -4 -10 -10z"/>
<path d="M405 2510 c-3 -5 -1 -10 4 -10 6 0 11 5 11 10 0 6 -2 10 -4 10 -3 0
-8 -4 -11 -10z"/>
<path d="M441 2504 c0 -11 3 -14 6 -6 3 7 2 16 -1 19 -3 4 -6 -2 -5 -13z"/>
<path d="M377 2483 c-12 -11 -8 -23 8 -23 8 0 15 7 15 15 0 16 -12 20 -23 8z"/>
<path d="M415 2390 c-3 -5 -1 -10 4 -10 6 0 11 5 11 10 0 6 -2 10 -4 10 -3 0
-8 -4 -11 -10z"/>
<path d="M545 2350 c-3 -5 -2 -10 4 -10 5 0 13 5 16 10 3 6 2 10 -4 10 -5 0
-13 -4 -16 -10z"/>
<path d="M475 2320 c-3 -5 -1 -10 4 -10 6 0 11 5 11 10 0 6 -2 10 -4 10 -3 0
-8 -4 -11 -10z"/>
<path d="M960 2320 c0 -5 5 -10 10 -10 6 0 10 5 10 10 0 6 -4 10 -10 10 -5 0
-10 -4 -10 -10z"/>
<path d="M1000 2302 c0 -2 7 -11 16 -20 17 -16 84 -25 84 -11 0 16 -20 20 -41
8 -20 -10 -21 -9 -17 9 5 16 1 19 -18 18 -13 0 -24 -2 -24 -4z"/>
<path d="M1699 2283 c-9 -2 -19 -15 -21 -28 -4 -16 -1 -22 9 -18 7 3 13 9 13
13 0 13 39 19 43 6 3 -8 8 -8 17 0 9 9 5 14 -17 21 -15 5 -35 8 -44 6z"/>
<path d="M1280 2261 c0 -8 -12 -10 -37 -6 l-38 5 33 -13 c18 -7 37 -18 41 -25
5 -8 15 -10 30 -4 l22 8 -26 24 c-14 13 -25 18 -25 11z"/>
<path d="M1595 2241 c-3 -5 -1 -12 4 -15 5 -3 11 1 15 9 6 16 -9 21 -19 6z"/>
<path d="M1725 2231 c-3 -5 -1 -12 5 -16 5 -3 10 1 10 9 0 18 -6 21 -15 7z"/>
<path d="M1763 2223 c-17 -6 -16 -23 1 -23 8 0 16 7 20 15 6 15 1 17 -21 8z"/>
<path d="M1574 2196 c1 -18 4 -22 14 -14 9 8 9 14 1 24 -16 19 -17 18 -15 -10z"/>
<path d="M1777 2174 c-3 -4 -20 -7 -37 -8 -46 -2 -36 -20 15 -27 52 -6 81 12
47 30 -11 6 -22 8 -25 5z"/>
<path d="M1020 2100 c-9 -6 -10 -10 -3 -10 6 0 15 5 18 10 8 12 4 12 -15 0z"/>
<path d="M1390 2040 c0 -5 5 -10 10 -10 6 0 10 5 10 10 0 6 -4 10 -10 10 -5 0
-10 -4 -10 -10z"/>
<path d="M690 1950 c-13 -8 -13 -10 2 -10 9 0 20 5 23 10 8 13 -5 13 -25 0z"/>
<path d="M835 1839 c-11 -17 1 -21 15 -4 8 9 8 15 2 15 -6 0 -14 -5 -17 -11z"/>
<path d="M470 1825 c-16 -19 -1 -19 24 0 16 12 17 15 4 15 -8 0 -21 -7 -28
-15z"/>
<path d="M1130 1809 c0 -5 5 -7 10 -4 6 3 10 8 10 11 0 2 -4 4 -10 4 -5 0 -10
-5 -10 -11z"/>
<path d="M2065 1790 c-3 -5 -1 -10 4 -10 6 0 11 5 11 10 0 6 -2 10 -4 10 -3 0
-8 -4 -11 -10z"/>
<path d="M1275 1780 c-3 -5 -2 -10 4 -10 5 0 13 5 16 10 3 6 2 10 -4 10 -5 0
-13 -4 -16 -10z"/>
<path d="M2667 1776 c-34 -8 -45 -14 -37 -22 7 -7 3 -14 -16 -24 -31 -17 -52
-50 -31 -50 8 0 20 7 27 15 7 8 20 15 29 15 9 0 21 10 26 23 8 17 18 22 50 22
22 0 41 5 42 10 4 17 -39 22 -90 11z"/>
<path d="M1752 1768 c3 -7 15 -15 28 -16 21 -3 22 -2 11 12 -16 19 -44 21 -39
4z"/>
<path d="M2251 1761 c-10 -6 -10 -10 -1 -16 13 -8 24 -1 19 14 -3 6 -10 7 -18
2z"/>
<path d="M525 1750 c-8 -13 5 -13 25 0 13 8 13 10 -2 10 -9 0 -20 -4 -23 -10z"/>
<path d="M2148 1753 c7 -3 16 -2 19 1 4 3 -2 6 -13 5 -11 0 -14 -3 -6 -6z"/>
<path d="M168 1721 c-23 -20 -53 -32 -101 -41 l-67 -14 0 -143 0 -144 35 4
c19 2 38 7 42 10 3 4 15 7 25 7 19 0 26 -34 8 -45 -13 -8 -13 -25 -1 -25 6 0
27 25 48 55 31 45 44 56 73 60 19 3 52 9 73 14 28 6 36 6 28 -2 -6 -6 -11 -21
-11 -33 0 -13 -4 -26 -10 -29 -5 -3 -10 -10 -10 -14 0 -10 128 108 218 201 37
39 39 58 4 39 -34 -18 -49 -12 -22 9 l25 20 -47 0 c-26 0 -50 5 -53 10 -4 6
-11 8 -16 4 -18 -10 -111 17 -105 31 4 11 -2 11 -27 3 -18 -6 -49 -12 -70 -13
-21 -1 -50 -11 -65 -22 -46 -33 -51 -35 -45 -13 3 11 10 20 17 20 12 0 105 79
94 80 -4 0 -22 -13 -40 -29z m-67 -143 c-8 -22 -51 -45 -51 -28 0 6 7 10 15
10 8 0 12 6 9 14 -3 8 2 16 13 19 10 3 19 5 20 6 1 0 -1 -9 -6 -21z m171 -21
c-16 -15 -36 -22 -72 -23 -27 -2 -50 1 -50 4 1 19 19 29 54 30 21 1 40 3 42 5
2 1 13 3 25 4 l22 2 -21 -22z m-234 2 c-2 -6 -8 -10 -13 -10 -5 0 -11 4 -13
10 -2 6 4 11 13 11 9 0 15 -5 13 -11z"/>
<path d="M1024 1728 l-19 -21 28 18 c28 18 33 25 19 25 -5 0 -17 -10 -28 -22z"/>
<path d="M649 1713 c-13 -16 -12 -17 4 -4 9 7 17 15 17 17 0 8 -8 3 -21 -13z"/>
<path d="M2155 1705 c-24 -24 -32 -45 -17 -45 4 0 20 16 35 35 32 40 19 47
-18 10z"/>
<path d="M1916 1691 c-4 -7 -5 -15 -2 -18 9 -9 19 4 14 18 -4 11 -6 11 -12 0z"/>
<path d="M1025 1680 c-3 -5 1 -10 10 -10 9 0 13 5 10 10 -3 6 -8 10 -10 10 -2
0 -7 -4 -10 -10z"/>
<path d="M2535 1670 c3 -5 8 -10 11 -10 2 0 4 5 4 10 0 6 -5 10 -11 10 -5 0
-7 -4 -4 -10z"/>
<path d="M2095 1660 c-3 -5 -2 -10 4 -10 5 0 13 5 16 10 3 6 2 10 -4 10 -5 0
-13 -4 -16 -10z"/>
<path d="M2760 1661 c0 -6 5 -13 10 -16 6 -3 10 1 10 9 0 9 -4 16 -10 16 -5 0
-10 -4 -10 -9z"/>
<path d="M2698 1629 c-21 -17 -38 -38 -38 -46 0 -10 -6 -12 -19 -8 -14 4 -25
-3 -41 -25 -12 -16 -19 -34 -16 -39 9 -13 66 17 66 35 0 8 5 14 11 14 5 0 30
15 54 34 37 28 42 36 32 49 -11 14 -16 13 -49 -14z"/>
<path d="M1655 1630 c-3 -6 1 -7 9 -4 18 7 21 14 7 14 -6 0 -13 -4 -16 -10z"/>
<path d="M1821 1624 c10 -12 33 -13 44 -2 3 3 -8 8 -24 10 -23 3 -28 2 -20 -8z"/>
<path d="M1401 1579 c-21 -28 -21 -29 -2 -17 11 7 23 19 26 27 10 25 -1 21
-24 -10z"/>
<path d="M825 1580 c-27 -30 -12 -34 15 -5 13 14 19 25 13 25 -5 0 -18 -9 -28
-20z"/>
<path d="M1783 1561 c-45 -40 -56 -59 -25 -42 16 9 79 81 70 81 -2 0 -22 -18
-45 -39z"/>
<path d="M2000 1580 c0 -5 5 -10 10 -10 6 0 10 5 10 10 0 6 -4 10 -10 10 -5 0
-10 -4 -10 -10z"/>
<path d="M1005 1560 c-3 -5 -1 -10 4 -10 6 0 11 5 11 10 0 6 -2 10 -4 10 -3 0
-8 -4 -11 -10z"/>
<path d="M1546 1535 c-27 -25 -30 -49 -4 -27 7 5 29 15 48 20 24 7 28 10 13
11 -12 1 -23 6 -25 12 -2 6 -16 -1 -32 -16z"/>
<path d="M2170 1545 c-7 -9 -11 -18 -8 -20 3 -3 11 1 18 10 7 9 11 18 8 20 -3
3 -11 -1 -18 -10z"/>
<path d="M1157 1533 c-4 -3 -7 -11 -7 -17 0 -6 5 -5 12 2 6 6 9 14 7 17 -3 3
-9 2 -12 -2z"/>
<path d="M2292 1495 c-7 -14 -12 -34 -12 -45 0 -10 -4 -22 -10 -25 -12 -7 -14
-45 -2 -45 6 0 43 132 37 138 -1 1 -7 -9 -13 -23z"/>
<path d="M1869 1449 c-26 -28 -52 -62 -58 -75 -10 -23 -9 -24 9 -14 11 6 20
17 20 25 0 7 9 16 19 20 16 5 52 51 69 88 10 21 -19 0 -59 -44z"/>
<path d="M2195 1479 c-4 -6 -5 -13 -2 -16 7 -7 27 6 27 18 0 12 -17 12 -25 -2z"/>
<path d="M2235 1468 c-6 -13 -14 -21 -19 -20 -5 2 -12 -2 -17 -9 -4 -8 -23
-18 -40 -24 -18 -6 -35 -17 -37 -23 -6 -20 44 -13 63 8 11 12 25 18 36 15 20
-7 31 7 35 46 4 35 -7 38 -21 7z"/>
<path d="M2510 1470 c-12 -23 2 -27 19 -6 8 9 8 16 2 20 -6 4 -15 -3 -21 -14z"/>
<path d="M710 1455 c-13 -14 -30 -25 -37 -25 -8 0 -11 -4 -8 -10 10 -17 22
-11 49 25 32 41 29 46 -4 10z"/>
<path d="M1287 1455 c-33 -23 -48 -45 -31 -45 7 0 94 62 94 67 0 10 -30 0 -63
-22z"/>
<path d="M1470 1460 c0 -5 5 -10 10 -10 6 0 10 5 10 10 0 6 -4 10 -10 10 -5 0
-10 -4 -10 -10z"/>
<path d="M1085 1449 c-4 -6 -5 -12 -2 -15 2 -3 7 2 10 11 7 17 1 20 -8 4z"/>
<path d="M2580 1449 c0 -5 5 -7 10 -4 6 3 10 8 10 11 0 2 -4 4 -10 4 -5 0 -10
-5 -10 -11z"/>
<path d="M1447 1422 c-19 -20 -22 -32 -9 -32 5 0 14 11 20 25 14 30 11 31 -11
7z"/>
<path d="M1631 1402 c-36 -51 -23 -72 18 -28 17 18 20 29 13 41 -8 15 -12 14
-31 -13z"/>
<path d="M2009 1374 c-21 -23 -22 -26 -5 -23 10 2 22 14 27 27 11 28 8 28 -22
-4z"/>
<path d="M1006 1361 c-9 -17 -25 -35 -36 -41 -13 -7 -20 -20 -19 -38 l1 -27
11 28 c6 15 14 27 18 27 10 0 52 70 46 76 -3 3 -13 -8 -21 -25z"/>
<path d="M1400 1348 c-13 -5 -27 -13 -30 -18 -3 -5 -17 -13 -30 -19 -19 -8
-21 -10 -6 -10 15 -1 17 -6 12 -28 -15 -62 -15 -66 0 -33 8 19 33 51 55 72 42
38 42 52 -1 36z"/>
<path d="M259 1324 c-14 -38 -3 -41 16 -5 9 18 11 31 5 31 -6 0 -15 -12 -21
-26z"/>
<path d="M1986 1331 c-4 -7 -5 -15 -2 -18 9 -9 19 4 14 18 -4 11 -6 11 -12 0z"/>
<path d="M1172 1313 c-18 -32 -16 -51 4 -31 9 8 14 24 12 34 -4 18 -5 17 -16
-3z"/>
<path d="M770 1290 c0 -5 7 -10 15 -10 8 0 15 5 15 10 0 6 -7 10 -15 10 -8 0
-15 -4 -15 -10z"/>
<path d="M848 1293 c7 -3 16 -2 19 1 4 3 -2 6 -13 5 -11 0 -14 -3 -6 -6z"/>
<path d="M1735 1280 c3 -5 -4 -35 -15 -67 -22 -63 -24 -73 -12 -73 14 0 39 53
47 96 5 33 3 43 -10 48 -9 3 -13 2 -10 -4z"/>
<path d="M368 1273 c-12 -3 -18 -14 -18 -30 l0 -26 25 23 c24 23 33 41 18 39
-5 -1 -16 -3 -25 -6z"/>
<path d="M2122 1258 c5 -15 37 -18 41 -3 1 6 -9 12 -22 13 -16 3 -22 -1 -19
-10z"/>
<path d="M1950 1250 c0 -5 5 -10 10 -10 6 0 10 5 10 10 0 6 -4 10 -10 10 -5 0
-10 -4 -10 -10z"/>
<path d="M180 1239 c0 -5 5 -7 10 -4 6 3 10 8 10 11 0 2 -4 4 -10 4 -5 0 -10
-5 -10 -11z"/>
<path d="M1486 1241 c-4 -5 2 -7 13 -4 30 8 33 -13 7 -52 -14 -20 -28 -45 -31
-56 -4 -10 -13 -19 -21 -19 -8 0 -14 -4 -14 -10 0 -22 37 -9 49 18 7 15 21 44
32 64 26 50 24 68 -5 68 -14 0 -27 -4 -30 -9z"/>
<path d="M2065 1240 c-3 -5 -1 -10 4 -10 6 0 11 5 11 10 0 6 -2 10 -4 10 -3 0
-8 -4 -11 -10z"/>
<path d="M555 1229 c-11 -17 -2 -18 19 -3 17 12 17 14 4 14 -9 0 -20 -5 -23
-11z"/>
<path d="M918 1215 c-6 -13 -20 -27 -31 -31 -14 -4 -16 -9 -8 -17 13 -13 56
23 64 54 7 28 -11 23 -25 -6z"/>
<path d="M1055 1220 c-38 -7 -38 -7 18 -9 32 0 57 3 57 9 0 11 -14 11 -75 0z"/>
<path d="M340 1189 c0 -5 5 -7 10 -4 6 3 10 8 10 11 0 2 -4 4 -10 4 -5 0 -10
-5 -10 -11z"/>
<path d="M485 1180 c-4 -6 -8 -29 -9 -52 -3 -34 -1 -39 8 -26 7 9 24 20 39 23
28 7 47 25 27 25 -6 0 -20 -5 -32 -11 -28 -15 -33 -5 -13 25 15 23 15 26 2 26
-9 0 -19 -5 -22 -10z"/>
<path d="M1111 1162 c-2 -21 -43 -72 -58 -72 -8 0 -12 -4 -9 -9 19 -30 83 38
73 77 -3 9 -5 11 -6 4z"/>
<path d="M1667 1163 c-7 -10 21 -49 29 -40 3 3 -1 15 -9 27 -8 12 -17 18 -20
13z"/>
<path d="M88 1144 c-26 -14 -47 -58 -35 -71 3 -3 9 6 13 21 3 15 13 26 23 26
18 0 41 18 41 32 0 11 -11 9 -42 -8z"/>
<path d="M2654 1121 c3 -4 -3 -19 -14 -31 -11 -13 -20 -27 -20 -32 0 -4 -13
-8 -29 -8 -46 0 -46 -17 -1 -22 22 -2 40 0 40 4 0 5 10 13 23 18 12 6 29 14
37 19 8 6 27 12 43 16 29 6 36 29 11 39 -24 9 -96 7 -90 -3z"/>
<path d="M665 1109 c-4 -6 -5 -12 -2 -15 2 -3 7 2 10 11 7 17 1 20 -8 4z"/>
<path d="M1879 1110 c-1 -5 -2 -14 -3 -19 0 -5 -4 -13 -8 -17 -11 -11 -10 -24
2 -24 6 0 10 7 10 15 0 8 5 15 10 15 6 0 10 9 10 20 0 20 -19 29 -21 10z"/>
<path d="M2545 1110 c-3 -5 -1 -10 4 -10 6 0 11 5 11 10 0 6 -2 10 -4 10 -3 0
-8 -4 -11 -10z"/>
<path d="M1965 1100 c-3 -5 -2 -10 4 -10 5 0 13 5 16 10 3 6 2 10 -4 10 -5 0
-13 -4 -16 -10z"/>
<path d="M2330 1081 c0 -30 -18 -41 -72 -41 -42 0 -42 -17 0 -24 68 -11 92 -8
92 13 0 10 3 33 6 50 5 24 3 31 -10 31 -11 0 -16 -9 -16 -29z"/>
<path d="M1270 1066 c-12 -20 -20 -42 -17 -49 2 -6 14 8 26 31 28 54 21 66 -9
18z"/>
<path d="M1680 1093 c0 -6 -12 -14 -26 -17 -25 -7 -26 -8 -8 -21 17 -12 20
-11 32 12 8 13 11 27 8 31 -3 3 -6 1 -6 -5z"/>
<path d="M1000 1079 c0 -5 5 -7 10 -4 6 3 10 8 10 11 0 2 -4 4 -10 4 -5 0 -10
-5 -10 -11z"/>
<path d="M2135 1053 c9 -36 10 -37 32 -24 17 10 17 10 1 11 -11 0 -18 8 -18
20 0 11 -5 20 -11 20 -7 0 -9 -10 -4 -27z"/>
<path d="M430 1050 c0 -5 -9 -19 -20 -30 l-20 -20 25 0 c18 0 25 5 25 20 0 11
5 20 10 20 6 0 10 5 10 10 0 6 -7 10 -15 10 -8 0 -15 -4 -15 -10z"/>
<path d="M1460 1051 c0 -6 17 -7 38 -4 51 8 53 13 4 13 -23 0 -42 -4 -42 -9z"/>
<path d="M800 998 c-8 -24 -19 -50 -26 -58 -8 -10 -10 -21 -4 -29 4 -8 5 -24
0 -36 -13 -33 4 -51 18 -20 7 15 30 34 55 45 27 13 35 20 22 20 -11 0 -31 -7
-43 -16 -20 -14 -23 -14 -29 2 -4 10 -2 19 5 22 7 2 12 12 12 23 0 11 7 35 14
54 12 28 12 35 2 35 -7 0 -19 -19 -26 -42z"/>
<path d="M1845 1019 c-4 -6 -5 -13 -2 -16 7 -7 27 6 27 18 0 12 -17 12 -25 -2z"/>
<path d="M2443 1023 c15 -2 39 -2 55 0 15 2 2 4 -28 4 -30 0 -43 -2 -27 -4z"/>
<path d="M2366 989 c-9 -48 -7 -109 4 -109 14 0 23 45 16 76 -5 18 -2 32 10
45 16 18 16 19 -3 19 -15 0 -22 -9 -27 -31z"/>
<path d="M1805 990 c-3 -5 -2 -10 4 -10 5 0 13 5 16 10 3 6 2 10 -4 10 -5 0
-13 -4 -16 -10z"/>
<path d="M1256 975 c-3 -8 -1 -15 4 -15 6 0 10 7 10 15 0 8 -2 15 -4 15 -2 0
-6 -7 -10 -15z"/>
<path d="M1397 968 c-32 -11 -56 -22 -54 -24 7 -7 98 13 110 25 19 19 3 19
-56 -1z"/>
<path d="M1648 963 c-2 -17 -12 -32 -28 -40 -24 -12 -25 -13 -2 -13 25 0 28
-19 9 -63 -9 -22 -26 -33 -67 -48 -30 -10 -64 -19 -77 -19 -12 0 -25 -4 -28
-10 -6 -10 22 -7 112 12 57 12 88 6 79 -17 -3 -8 -1 -15 4 -15 6 0 10 -10 10
-22 0 -18 2 -20 9 -8 6 8 7 18 5 22 -5 8 -17 117 -18 168 0 14 3 37 7 53 4 15
3 27 -2 27 -5 0 -11 -12 -13 -27z"/>
<path d="M2105 979 c-4 -6 -5 -12 -2 -15 2 -3 7 2 10 11 7 17 1 20 -8 4z"/>
<path d="M250 970 c-9 -6 -10 -10 -3 -10 6 0 15 5 18 10 8 12 4 12 -15 0z"/>
<path d="M2621 957 c-11 -23 -11 -181 1 -169 7 7 13 88 8 107 -6 23 2 36 33
55 17 11 30 20 27 21 -52 7 -58 6 -69 -14z"/>
<path d="M200 935 c-6 -15 -8 -30 -6 -33 3 -3 10 8 16 23 6 15 8 30 6 33 -3 3
-10 -8 -16 -23z"/>
<path d="M1096 949 c-27 -4 -53 -14 -57 -21 -5 -7 -9 -8 -9 -3 -2 24 -30 -47
-35 -86 -2 -24 -1 -35 3 -24 21 56 54 105 72 106 58 4 79 6 122 13 l47 8 -19
-51 c-10 -28 -14 -51 -9 -51 5 0 9 7 9 15 0 8 5 15 10 15 14 0 46 68 36 77
-10 10 -111 11 -170 2z"/>
<path d="M1829 929 c-3 -55 0 -104 6 -97 3 3 11 28 19 56 12 47 11 51 -6 55
-12 4 -18 -1 -19 -14z"/>
<path d="M411 933 c-1 -7 -16 -20 -33 -29 -30 -16 -31 -18 -13 -25 11 -4 23
-8 28 -8 10 -1 29 49 23 63 -3 7 -5 7 -5 -1z"/>
<path d="M2100 918 c0 -12 -8 -30 -17 -41 -18 -19 -17 -20 5 -8 34 18 50 71
21 71 -5 0 -9 -10 -9 -22z"/>
<path d="M586 921 c-3 -4 -20 -12 -38 -16 -18 -4 -27 -9 -20 -12 6 -2 12 -12
12 -22 0 -9 -6 -23 -12 -30 -10 -11 -10 -14 0 -18 17 -7 15 -21 -4 -25 -13 -2
-17 -16 -18 -56 0 -31 3 -51 9 -49 6 2 11 12 11 23 3 38 17 84 26 84 5 0 3 10
-3 22 -9 16 -9 23 0 26 6 2 11 10 11 17 0 8 9 17 20 20 11 3 20 15 20 26 0 20
-5 24 -14 10z"/>
<path d="M2748 909 c-13 -7 -18 -23 -18 -54 0 -34 -3 -43 -14 -39 -8 3 -17 1
-21 -5 -3 -7 2 -11 14 -11 14 0 27 -13 41 -40 11 -22 24 -40 29 -40 20 0 18
66 -3 108 l-21 44 23 18 c12 10 22 21 22 24 0 9 -33 6 -52 -5z"/>
<path d="M1436 895 c-3 -9 -6 -24 -6 -33 0 -27 -44 -75 -81 -88 -27 -10 -30
-13 -11 -13 25 -1 50 -47 34 -63 -5 -5 -7 -31 -4 -58 5 -55 -5 -64 -77 -76
-58 -9 -67 -29 -10 -22 79 10 117 33 131 79 10 36 10 43 -5 54 -15 11 -14 14
7 46 25 38 50 154 37 177 -7 12 -9 12 -15 -3z m-33 -250 c-8 -22 -22 -18 -16
5 3 11 9 17 14 15 4 -3 6 -12 2 -20z"/>
<path d="M185 870 c-4 -6 -22 -17 -41 -25 -19 -8 -34 -19 -34 -24 0 -15 8 -14
56 10 29 13 41 25 37 35 -6 17 -10 17 -18 4z"/>
<path d="M2346 860 c-11 -3 -15 -9 -10 -13 10 -6 42 9 34 16 -3 3 -14 1 -24
-3z"/>
<path d="M2223 843 c15 -2 37 -2 50 0 12 2 0 4 -28 4 -27 0 -38 -2 -22 -4z"/>
<path d="M2070 815 c0 -30 6 -32 19 -6 8 14 7 20 -4 25 -11 4 -15 -2 -15 -19z"/>
<path d="M2357 810 c-4 -14 -8 -38 -9 -55 -2 -23 -9 -31 -26 -33 -20 -3 -21
-5 -9 -15 20 -16 32 -151 14 -165 -7 -6 -44 -16 -82 -22 -73 -12 -129 -29
-121 -37 3 -3 20 0 38 5 18 6 62 13 97 17 69 6 81 0 81 -41 0 -12 8 -32 18
-43 17 -22 17 -22 16 11 -1 18 -2 48 -3 66 -1 23 -5 31 -13 26 -8 -5 -9 -2 -4
12 14 32 16 128 4 135 -17 11 36 75 67 83 35 9 22 26 -20 26 -29 0 -34 4 -37
28 l-4 27 -7 -25z"/>
<path d="M750 786 c0 -20 -5 -36 -11 -36 -6 0 -8 -7 -5 -16 4 -10 -1 -22 -11
-31 -17 -13 -17 -14 2 -11 13 2 21 12 23 31 2 15 7 27 11 27 11 0 11 59 0 65
-5 4 -9 -10 -9 -29z"/>
<path d="M1177 796 c-4 -10 -5 -21 -2 -24 9 -9 17 6 13 25 -3 17 -4 17 -11 -1z"/>
<path d="M306 775 c-9 -14 -23 -25 -31 -25 -8 0 -15 -5 -15 -11 0 -5 -4 -8 -9
-4 -11 6 -18 -16 -20 -70 -2 -43 -15 -64 -40 -66 -9 -1 -5 -4 9 -9 18 -5 29
-3 38 8 11 14 12 14 12 0 0 -8 -7 -21 -14 -28 -8 -6 -21 -37 -27 -67 -9 -39
-18 -57 -31 -61 -10 -2 -15 -8 -13 -13 3 -4 -2 -12 -12 -17 -16 -9 -16 -13 -1
-51 26 -65 13 -92 -52 -113 -62 -20 -94 -43 -45 -33 17 4 42 11 57 17 42 16
53 7 49 -41 -2 -30 1 -41 9 -36 6 4 10 26 9 50 -2 26 3 51 12 61 13 16 12 17
-5 11 -14 -6 -16 -4 -9 5 11 14 11 59 -1 96 -6 18 -2 29 18 47 14 13 26 33 26
44 0 11 4 22 9 25 5 3 14 26 20 50 6 24 19 52 28 62 17 17 17 18 1 11 -10 -3
-18 -2 -18 4 0 6 -5 7 -11 3 -7 -4 -9 0 -5 14 4 11 9 31 11 44 3 13 15 32 29
44 25 23 50 63 43 70 -2 3 -12 -7 -21 -21z"/>
<path d="M910 785 l-25 -14 28 -1 c17 0 27 5 27 15 0 18 1 18 -30 0z"/>
<path d="M100 755 c-8 -9 -8 -15 -2 -15 12 0 26 19 19 26 -2 2 -10 -2 -17 -11z"/>
<path d="M1260 761 c0 -5 9 -7 20 -4 11 3 20 7 20 9 0 2 -9 4 -20 4 -11 0 -20
-4 -20 -9z"/>
<path d="M2587 714 c-9 -91 17 -129 58 -84 11 13 31 20 54 21 20 0 45 5 56 10
13 6 -2 7 -45 2 -109 -11 -105 -11 -105 22 0 17 3 42 7 58 5 19 3 27 -6 27 -9
0 -15 -20 -19 -56z"/>
<path d="M1817 733 c-3 -10 -8 -30 -11 -45 -6 -25 -11 -28 -51 -28 -24 0 -47
-5 -50 -11 -9 -13 94 -8 105 6 9 12 24 95 17 95 -3 0 -8 -8 -10 -17z"/>
<path d="M950 711 c-5 -11 -10 -30 -10 -43 0 -21 -8 -26 -77 -43 -43 -11 -79
-26 -81 -34 -4 -10 0 -12 14 -7 19 8 121 36 129 36 3 0 5 -9 5 -19 0 -11 5
-23 10 -26 6 -3 10 4 10 17 0 26 30 47 109 80 l46 19 -50 -6 c-27 -3 -54 -10
-59 -15 -23 -23 -38 -11 -32 25 8 39 2 45 -14 16z"/>
<path d="M78 703 c-10 -10 -22 -43 -29 -73 -6 -30 -20 -64 -30 -76 -25 -27
-25 -54 1 -54 13 0 21 9 25 28 15 75 37 147 47 153 5 4 8 14 6 24 -3 16 -4 16
-20 -2z"/>
<path d="M1158 692 c-13 -13 -15 -25 -9 -52 l8 -35 8 38 c4 20 11 40 16 43 11
6 12 24 2 23 -5 0 -16 -8 -25 -17z"/>
<path d="M2049 705 c-3 -2 -33 -7 -68 -10 -66 -6 -141 -31 -141 -46 0 -12 11
-11 40 6 14 8 52 14 86 15 l62 0 5 -32 c6 -44 -11 -151 -26 -160 -7 -5 -1 -8
16 -8 24 0 27 3 22 23 -4 15 -1 28 9 36 11 9 13 26 9 73 -4 43 -2 63 7 68 7 4
10 15 7 24 -6 16 -19 21 -28 11z"/>
<path d="M1660 690 c0 -5 5 -10 11 -10 5 0 7 5 4 10 -3 6 -8 10 -11 10 -2 0
-4 -4 -4 -10z"/>
<path d="M501 640 c0 -33 1 -34 10 -11 6 16 6 28 -1 35 -7 7 -10 -1 -9 -24z"/>
<path d="M1661 657 c-6 -8 -8 -17 -4 -20 7 -8 33 11 33 24 0 13 -16 11 -29 -4z"/>
<path d="M320 630 c-20 -6 -21 -8 -5 -8 11 0 29 3 40 8 25 11 -1 11 -35 0z"/>
<path d="M730 603 c0 -13 5 -23 10 -23 13 0 13 11 0 30 -8 12 -10 11 -10 -7z"/>
<path d="M1770 571 c0 -21 -9 -41 -25 -56 -20 -21 -21 -25 -7 -25 9 0 26 -3
38 -6 19 -5 20 -2 14 50 -7 62 -20 87 -20 37z"/>
<path d="M1150 545 c0 -19 5 -35 10 -35 6 0 10 16 10 35 0 19 -4 35 -10 35 -5
0 -10 -16 -10 -35z"/>
<path d="M2381 571 c-7 -5 -12 -14 -10 -20 3 -6 9 -7 18 -2 7 5 12 14 10 20
-3 6 -9 7 -18 2z"/>
<path d="M2840 556 c0 -9 5 -16 10 -16 6 0 10 4 10 9 0 6 -4 13 -10 16 -5 3
-10 -1 -10 -9z"/>
<path d="M500 529 c0 -5 5 -7 10 -4 6 3 10 8 10 11 0 2 -4 4 -10 4 -5 0 -10
-5 -10 -11z"/>
<path d="M1506 494 c8 -56 9 -58 23 -49 7 4 6 16 -4 36 -9 16 -13 34 -10 39 3
5 0 12 -6 15 -7 5 -8 -7 -3 -41z"/>
<path d="M939 528 c-5 -16 -3 -61 3 -64 4 -3 8 -16 8 -30 0 -15 4 -23 10 -19
6 4 8 10 5 15 -3 5 12 23 32 40 39 33 38 33 -27 14 -18 -5 -20 -2 -14 20 4 16
2 26 -5 26 -6 0 -11 -1 -12 -2z"/>
<path d="M1090 520 c-12 -8 -11 -10 7 -10 12 0 25 5 28 10 8 13 -15 13 -35 0z"/>
<path d="M440 502 c-14 -2 -32 -5 -40 -8 -13 -4 -13 -6 0 -14 8 -5 23 -7 33
-4 10 3 17 0 17 -8 0 -8 5 -6 11 5 14 24 8 33 -21 29z"/>
<path d="M34 449 c0 -28 -5 -44 -17 -50 -9 -6 -17 -14 -17 -20 0 -5 11 -2 25
7 19 13 25 25 25 55 0 21 -4 40 -8 43 -5 3 -8 -13 -8 -35z"/>
<path d="M1978 474 c-3 -3 -34 -9 -68 -14 -35 -5 -68 -14 -74 -21 -8 -9 -8
-10 2 -4 7 4 30 7 50 7 44 -1 102 16 102 29 0 10 -4 12 -12 3z"/>
<path d="M429 470 c0 -3 -3 -25 -5 -49 -2 -24 -11 -52 -19 -61 -18 -20 -19
-51 -4 -121 10 -47 10 -54 -7 -67 -18 -14 -18 -14 1 -7 11 4 30 10 43 12 12 3
22 9 22 14 0 5 -7 6 -15 3 -15 -6 -17 3 -17 66 0 14 -5 28 -11 31 -16 11 1 57
23 64 16 5 18 10 9 26 -5 11 -7 28 -4 39 3 11 2 28 -4 37 -6 10 -11 16 -12 13z"/>
<path d="M1146 451 c-4 -7 -5 -15 -2 -18 9 -9 19 4 14 18 -4 11 -6 11 -12 0z"/>
<path d="M1772 415 c4 -30 1 -51 -10 -66 -8 -12 -11 -24 -5 -28 5 -3 9 -37 10
-74 0 -37 3 -71 7 -74 3 -4 6 -19 6 -35 0 -15 4 -28 9 -28 5 0 9 14 9 30 -1
17 7 38 16 49 15 16 15 19 1 31 -8 7 -15 19 -15 26 0 8 -4 14 -10 14 -5 0 -10
9 -10 21 0 14 5 19 13 16 11 -4 13 8 11 51 -1 31 1 63 6 73 10 18 -5 39 -28
39 -11 0 -13 -10 -10 -45z"/>
<path d="M730 439 c0 -5 5 -7 10 -4 6 3 10 8 10 11 0 2 -4 4 -10 4 -5 0 -10
-5 -10 -11z"/>
<path d="M2056 431 c3 -9 8 -23 11 -33 7 -22 -39 -138 -54 -138 -7 0 -13 -4
-13 -10 0 -5 9 -10 20 -10 22 0 37 -41 47 -128 7 -65 29 -66 25 -1 -2 42 -2
43 11 20 18 -31 30 -12 13 20 -17 33 -29 139 -16 139 5 0 10 9 10 20 0 30 -23
110 -32 110 -4 0 -5 6 -2 13 3 8 -2 14 -11 14 -11 0 -14 -6 -9 -16z"/>
<path d="M2654 434 c3 -9 6 -18 6 -20 0 -3 5 -2 10 1 16 10 12 35 -6 35 -11 0
-14 -5 -10 -16z"/>
<path d="M2695 440 c-3 -5 3 -10 15 -10 12 0 18 5 15 10 -3 6 -10 10 -15 10
-5 0 -12 -4 -15 -10z"/>
<path d="M110 430 c0 -5 4 -10 9 -10 6 0 13 5 16 10 3 6 -1 10 -9 10 -9 0 -16
-4 -16 -10z"/>
<path d="M1325 410 c-3 -5 1 -10 9 -10 8 0 18 5 21 10 3 6 -1 10 -9 10 -8 0
-18 -4 -21 -10z"/>
<path d="M1560 420 c-1 -3 -4 -21 -6 -40 -1 -19 -4 -44 -6 -55 -2 -12 3 -20
12 -20 19 0 24 42 11 86 -5 19 -10 32 -11 29z"/>
<path d="M741 378 c-1 -21 3 -38 8 -38 17 0 19 15 6 45 l-13 30 -1 -37z"/>
<path d="M949 375 c-3 -22 -10 -31 -26 -33 -13 -2 -23 -8 -23 -13 0 -15 32
-10 52 8 12 10 18 12 18 4 0 -7 5 -9 11 -5 8 4 8 9 1 13 -6 4 -15 18 -20 31
l-10 25 -3 -30z"/>
<path d="M1140 384 c0 -8 5 -12 10 -9 6 3 10 10 10 16 0 5 -4 9 -10 9 -5 0
-10 -7 -10 -16z"/>
<path d="M1175 390 c-3 -5 -1 -10 4 -10 6 0 11 5 11 10 0 6 -2 10 -4 10 -3 0
-8 -4 -11 -10z"/>
<path d="M1244 338 c-4 -12 -7 -39 -7 -60 0 -23 -4 -38 -12 -38 -7 0 -24 -9
-38 -21 -15 -11 -54 -29 -87 -41 -69 -23 -78 -33 -22 -23 47 8 57 -3 66 -70 9
-64 15 -85 26 -85 4 0 5 38 3 84 l-6 84 41 21 c39 20 71 30 174 54 73 17 118
-14 98 -68 -6 -15 -6 -26 0 -30 21 -13 26 82 5 97 -6 5 -5 8 3 8 6 0 12 7 12
15 0 7 8 19 18 24 9 6 14 11 11 11 -18 1 -126 -23 -134 -30 -5 -4 -36 -15 -67
-23 -69 -18 -74 -14 -69 61 3 55 -3 67 -15 30z"/>
<path d="M2445 350 c-3 -5 -1 -10 4 -10 6 0 11 5 11 10 0 6 -2 10 -4 10 -3 0
-8 -4 -11 -10z"/>
<path d="M2640 318 c0 -26 16 -55 25 -47 8 8 -6 69 -16 69 -5 0 -9 -10 -9 -22z"/>
<path d="M738 306 c-6 -14 -22 -29 -37 -34 -113 -42 -106 -37 -104 -77 4 -56
21 -79 19 -24 l-1 44 74 32 c86 37 94 44 85 66 -9 24 -23 21 -36 -7z"/>
<path d="M2367 321 c-17 -6 -17 -9 -4 -19 12 -10 16 -9 20 8 3 11 4 20 4 19
-1 0 -10 -4 -20 -8z"/>
<path d="M945 307 c-11 -8 -14 -16 -8 -20 6 -4 18 2 28 13 21 23 8 27 -20 7z"/>
<path d="M3025 280 c-3 -5 1 -10 9 -10 9 0 16 5 16 10 0 6 -4 10 -9 10 -6 0
-13 -4 -16 -10z"/>
<path d="M4741 274 c-11 -13 -11 -24 -3 -52 13 -42 5 -51 -43 -53 l-30 -1 30
-7 c36 -8 75 -2 75 11 0 5 6 6 13 1 7 -4 6 3 -4 17 -9 14 -19 37 -23 53 -6 24
-4 27 21 27 16 0 35 5 43 10 11 7 4 10 -25 9 -23 0 -46 -6 -54 -15z"/>
<path d="M2376 262 c-9 -14 5 -102 16 -102 5 0 6 23 2 53 -7 58 -9 63 -18 49z"/>
<path d="M2670 229 c0 -16 4 -28 9 -25 8 5 3 56 -5 56 -2 0 -4 -14 -4 -31z"/>
<path d="M1908 242 c-24 -3 -56 -27 -47 -36 2 -2 30 1 61 8 49 10 54 13 35 21
-12 6 -34 9 -49 7z"/>
<path d="M922 208 c-8 -22 -8 -36 -1 -50 14 -26 4 -48 -20 -48 -11 0 -23 -5
-26 -10 -8 -13 44 -2 63 13 8 6 23 12 34 14 11 2 28 8 37 13 12 8 7 10 -22 8
l-39 -3 -3 43 c-4 55 -8 59 -23 20z"/>
<path d="M2840 223 c-8 -3 -35 -14 -59 -24 -38 -17 -42 -21 -30 -35 25 -30 79
-135 79 -153 0 -6 9 -11 20 -11 28 0 25 11 -15 61 -19 24 -37 56 -41 72 -3 15
-10 27 -16 27 -6 0 2 11 18 25 16 14 34 25 41 25 6 0 15 5 18 10 7 11 7 11
-15 3z"/>
<path d="M0 199 c0 -5 5 -7 10 -4 5 3 10 8 10 11 0 2 -4 4 -10 4 -5 0 -10 -5
-10 -11z"/>
<path d="M4370 190 c0 -6 14 -46 30 -88 17 -41 29 -81 26 -89 -3 -8 2 -13 12
-13 11 0 18 8 19 20 1 11 -1 20 -5 20 -12 0 -36 63 -42 110 -3 32 -10 46 -22
48 -10 2 -18 -2 -18 -8z"/>
<path d="M4618 173 c7 -3 16 -2 19 1 4 3 -2 6 -13 5 -11 0 -14 -3 -6 -6z"/>
<path d="M5071 164 c0 -11 3 -14 6 -6 3 7 2 16 -1 19 -3 4 -6 -2 -5 -13z"/>
<path d="M2483 153 c-7 -2 -13 -9 -13 -14 0 -4 7 -6 15 -3 9 4 17 -1 21 -12 3
-11 10 -27 15 -36 13 -25 11 -75 -3 -81 -7 -3 -2 -6 12 -6 24 -1 26 2 22 37
-2 20 -10 44 -18 52 -7 9 -11 28 -9 43 5 27 -9 34 -42 20z"/>
<path d="M4771 141 c-12 -8 -13 -12 -1 -26 10 -13 15 -13 21 -3 20 30 8 46
-20 29z"/>
<path d="M160 130 c0 -5 5 -10 11 -10 5 0 7 5 4 10 -3 6 -8 10 -11 10 -2 0 -4
-4 -4 -10z"/>
<path d="M1303 120 c-1 -11 2 -20 6 -20 5 0 11 9 14 20 3 12 0 20 -7 20 -6 0
-12 -9 -13 -20z"/>
<path d="M280 115 c-23 -13 -23 -14 -4 -15 11 0 29 7 40 15 26 19 -1 20 -36 0z"/>
<path d="M3143 104 c2 -20 -6 -30 -32 -45 -37 -20 -31 -27 29 -31 30 -3 35 0
38 20 4 26 -16 82 -29 82 -4 0 -7 -12 -6 -26z"/>
<path d="M1471 97 c-13 -21 -12 -21 5 -5 10 10 16 20 13 22 -3 3 -11 -5 -18
-17z"/>
<path d="M1545 108 c-16 -5 -37 -12 -45 -14 -13 -5 -12 -7 2 -15 19 -11 88 15
88 32 0 11 -6 10 -45 -3z"/>
<path d="M2210 85 c-20 -24 -6 -28 15 -5 10 11 13 20 8 20 -6 0 -16 -7 -23
-15z"/>
<path d="M5071 84 c0 -11 3 -14 6 -6 3 7 2 16 -1 19 -3 4 -6 -2 -5 -13z"/>
<path d="M736 71 c-3 -5 1 -11 9 -15 9 -3 15 0 15 9 0 16 -16 20 -24 6z"/>
<path d="M794 66 c-18 -10 -20 -14 -9 -29 14 -20 25 -22 25 -5 0 6 7 20 17 30
19 21 2 24 -33 4z"/>
<path d="M1430 70 c-9 -6 -10 -10 -3 -10 6 0 15 5 18 10 8 12 4 12 -15 0z"/>
<path d="M4084 64 c3 -9 9 -27 12 -40 3 -13 13 -24 20 -24 16 0 10 44 -9 68
-14 17 -30 15 -23 -4z"/>
<path d="M603 30 c-6 -17 -7 -30 -2 -30 9 0 24 48 17 55 -2 2 -9 -9 -15 -25z"/>
<path d="M1825 38 c3 -16 0 -28 -8 -31 -7 -3 -5 -6 6 -6 19 -1 21 13 6 44 -8
17 -9 16 -4 -7z"/>
<path d="M34 30 c-30 -12 -40 -30 -17 -30 10 0 24 9 31 20 7 11 11 20 10 19
-2 0 -13 -4 -24 -9z"/>
<path d="M2010 30 c0 -12 8 -12 35 0 18 8 17 9 -7 9 -16 1 -28 -3 -28 -9z"/>
<path d="M1255 22 c-38 -8 -40 -22 -2 -22 20 0 37 4 37 9 0 14 -12 18 -35 13z"/>
<path d="M2197 23 c-12 -11 -8 -23 8 -23 8 0 15 7 15 15 0 16 -12 20 -23 8z"/>
<path d="M5071 14 c0 -11 3 -14 6 -6 3 7 2 16 -1 19 -3 4 -6 -2 -5 -13z"/>
<path d="M2680 10 c-13 -8 -12 -10 3 -10 9 0 17 5 17 10 0 12 -1 12 -20 0z"/>
<path d="M4840 10 c0 -5 18 -10 40 -10 22 0 40 5 40 10 0 6 -18 10 -40 10 -22
0 -40 -4 -40 -10z"/>
<path d="M4968 13 c7 -3 16 -2 19 1 4 3 -2 6 -13 5 -11 0 -14 -3 -6 -6z"/>
</g>
</svg>
